<?xml version="1.0" encoding="UTF-8"?>
<svg id="Layer_1" data-name="Layer 1" xmlns="http://www.w3.org/2000/svg" xmlns:xlink="http://www.w3.org/1999/xlink" viewBox="0 0 1080 1080">
  <defs>
    <style>
      .cls-1 {
        fill: #fff;
        filter: url(#drop-shadow-1);
      }

      .cls-2 {
        fill: #1d293d;
      }
    </style>
    <filter id="drop-shadow-1" x="122.4" y="123.84" width="835.92" height="852.72" filterUnits="userSpaceOnUse">
      <feOffset dx="0" dy="0"/>
      <feGaussianBlur result="blur" stdDeviation="20"/>
      <feFlood flood-color="#000" flood-opacity=".79"/>
      <feComposite in2="blur" operator="in"/>
      <feComposite in="SourceGraphic"/>
    </filter>
  </defs>
  <path class="cls-1" d="M896.61,451.69c-17.46,176.27-118.71,334.63-269.69,428.3-27.66,17.16-60.1,38.39-94,36.21-25.61-1.65-76.39-33.31-98.59-48.24-138.37-92.96-236.42-251.09-249.61-417.13-2.22-52.61-10.12-109.51,27.02-132.46,0-.02.02-.02.02-.02,29.8-26.15,102.49-63.33,135.05-78.18,53.13-24.24,161.17-63.85,217.95-55.03,74.74,11.62,164.29,47.25,229.56,84.62,16.64,9.55,53.78,31.03,75.2,50.39,33.47,22.85,30.19,75.23,26.56,127.91.3,0,.47,1.19.54,3.62Z"/>
  <g>
    <path class="cls-2" d="M428.06,217.21c15.85-5.31,28.32,14.01,16.94,26.25-6.54,7.03-11.32,12.17-11.61,12.46l.94-.94-197.42,197.42-2.79,2.79c-9.14,9.14-24.83,4.35-27.23-8.35-.06-.34-.13-.69-.19-1.03-.98-5.26.65-10.66,4.43-14.44l146.59-146.59,63.49-63.49c1.76-1.76,3.89-3.09,6.25-3.88.2-.07.4-.13.6-.2Z"/>
    <path class="cls-2" d="M234.45,584.1c2.31,4.6,4.68,9.17,7.1,13.71,1.89,3.54,1.27,7.88-1.57,10.72l-2.28,2.28c-4.54,4.53-12.25,3.07-14.75-2.83-2.16-5.09-4.25-10.21-6.25-15.36-1.3-3.34-.48-7.14,2.06-9.67l1.18-1.18c4.37-4.37,11.73-3.18,14.51,2.34Z"/>
    <path class="cls-2" d="M568.59,210.49l-283.04,283.04v58.97c0,4.4-1.74,8.61-4.85,11.7l-16.73,16.73v.02l-2.15,2.15c-6.05,6.04-16.31,4.33-19.97-3.39-1.31-2.76-2.59-5.53-3.86-8.31-2.13-4.69-1.08-10.21,2.56-13.85l10.57-10.57,1.32-1.32v-58.97c0-4.39,1.74-8.61,4.85-11.7l286.62-286.62c3.53-3.53,8.57-5.12,13.49-4.24,1.1.2,2.2.4,3.3.61,12.01,2.26,16.52,17.12,7.88,25.76Z"/>
    <path class="cls-2" d="M649.12,204.11c-.98-.35-1.94-.68-2.91-1.01-6.55-2.23-13.82-.53-18.72,4.37l-279.17,279.17c-.12-.02-.23-.02-.35-.02-13.79,0-24.92,11.52-24.33,25.45.55,12.28,10.51,22.44,22.77,23.2,7.43.46,14.23-2.42,18.98-7.3t.03-.03c1.24-1.29,2.37-2.71,3.31-4.25,2.28-3.69,3.59-8.04,3.59-12.71,0-.51-.02-1.01-.05-1.51l146.26-146.26,3.01-3.01,9.9-9.9,2.43-2.43,111.49-111.49c.17-.17,4.3-4.3,9.14-9.15,7.3-7.33,4.39-19.74-5.4-23.12ZM362.63,517.59c-2.81,6.21-9.43,10.31-16.88,9.32-7.27-.98-13.07-7.03-13.77-14.33-.66-6.74,2.9-12.78,8.34-15.74h.02c2.25-1.22,4.82-1.92,7.56-1.94,8.39-.03,15.62,6.72,16.12,15.11.17,2.71-.35,5.28-1.39,7.58Z"/>
    <path class="cls-2" d="M263.74,637.9c1.98,3.24,3.99,6.46,6.03,9.67,2.74,4.3,2.07,9.93-1.53,13.54l-2.54,2.54c-5.2,5.21-13.93,3.88-17.4-2.61-1.87-3.5-3.71-7.03-5.51-10.57-2.15-4.23-1.36-9.37,2-12.73l1.89-1.89c5.01-5.01,13.37-3.99,17.06,2.06Z"/>
    <path class="cls-2" d="M711.01,244.33c6.78,3.05,8.43,11.93,3.17,17.19l-17.33,17.33-83.79,83.79v46.26c0,4.39-1.74,8.61-4.85,11.7l-66.41,66.41-94.98,94.98c-3.1,3.1-7.32,4.85-11.71,4.85h-90.8l-53.88,53.9h0c-5.77,5.77-15.48,4.57-19.59-2.48-1.45-2.48-2.87-4.97-4.29-7.47-2.77-4.9-1.97-11.05,2.02-15.03l6.73-6.73,50.44-50.44c3.11-3.09,7.32-4.85,11.72-4.85h90.81l34.79-34.79,75.08-75.08,3.69-3.69,38.13-38.13v-46.26c0-4.39,1.74-8.61,4.85-11.7l78.68-78.69,24.02-24.02c3.08-3.08,7.73-3.95,11.73-2.23s7.88,3.43,11.77,5.18Z"/>
    <path class="cls-2" d="M337.41,733.68c1.86,2.05,3.74,4.08,5.63,6.11,4.53,4.85,4.4,12.41-.29,17.1l-5.81,5.81c-5.09,5.09-13.46,4.77-18.11-.73-1.87-2.21-3.72-4.43-5.56-6.67-4.02-4.91-3.68-12.07.81-16.55l5.51-5.51c4.98-4.97,13.08-4.76,17.82.44Z"/>
    <path class="cls-2" d="M835.75,311.51c7.38,5.42,8.15,16.16,1.68,22.63l-244.18,244.18c-3.11,3.11-7.32,4.85-11.7,4.85h-63.3l-156.24,156.24c-3.5,3.5-9.2,3.34-12.54-.3-3.62-3.94-7.19-7.94-10.7-11.99-2.96-3.42-2.73-8.55.47-11.75h0s160.45-160.45,160.45-160.45c3.11-3.11,7.31-4.85,11.7-4.85h63.32l238.98-238.98c5.2-5.2,13.39-5.85,19.36-1.56.91.65,1.82,1.31,2.71,1.97Z"/>
    <path class="cls-2" d="M551.23,608.53c-.83-.5-1.69-.93-2.58-1.31-4.75-2.09-10.24-2.7-16.04-1.24-10.86,2.73-18.1,12.51-18.04,23.72,0,1.04.07,2.05.21,3.05l-22.36,22.36-132.64,132.64c-5.99,5.99-5.97,15.74.1,21.63.68.68,1.37,1.34,2.07,2,5.96,5.73,15.42,5.58,21.28-.26l14.99-15.01,142.29-142.28c1.84-.12,3.64-.45,5.35-.96,7.4-2.18,13.34-7.81,15.95-15.04v-.02c.94-2.58,1.46-5.38,1.46-8.27,0-8.94-4.85-16.76-12.05-21ZM545.27,644.31c-1.95.84-4.09,1.31-6.34,1.31-6.36,0-11.87-3.71-14.46-9.07-.61-1.24-1.06-2.55-1.32-3.94-.2-.99-.3-2.02-.3-3.08s.1-2.02.28-2.98c1.41-7.45,7.96-13.09,15.8-13.09,1.08,0,2.12.1,3.13.31,1.09.22,2.15.53,3.16.96,5.74,2.47,9.78,8.18,9.78,14.8s-4.02,12.31-9.73,14.78Z"/>
    <path class="cls-2" d="M853.51,478.4c-1.2,4.86-2.46,9.71-3.78,14.55-3.54,12.97-10.45,24.77-19.95,34.27l-23.77,23.77-314.31,314.31-20.4,20.4c-4.54,4.54-11.61,5.4-17.11,2.08-1.57-.94-3.11-1.89-4.63-2.82-7.69-4.73-8.93-15.39-2.55-21.77l15.12-15.12,362.81-362.81,14.68-14.68c5.92-5.92,15.89-.3,13.89,7.82Z"/>
    <path class="cls-2" d="M866.81,578.54c-6.24,18.85-13.45,37.32-21.63,55.32-.25.53-.58,1.01-.98,1.41l-11.37,11.37c-1.79,1.77-3.92,3.11-6.26,3.92h-.02l-11.75.26-27.94.63h-.03l-1.59.03h-3.74c-4.35,0-8.51,1.72-11.58,4.8l-102.21,102.19c-3.08,3.08-4.8,7.25-4.8,11.58v45.68c0,8.74-3.48,17.13-9.65,23.3l-67.14,67.14c-5.46,5.43-13.69,6.93-20.52,3.82-6.82-3.11-11.02-10.26-10.58-17.84.07-1.16.56-2.25,1.39-3.08,7.31-7.31,14.63-14.65,21.94-21.96l46.65-46.65c3.08-3.08,4.8-7.25,4.8-11.58v-47.63c0-7.48,2.98-14.66,8.27-19.96l118.08-118.06c3.09-3.11,7.3-4.85,11.7-4.85h60.16l-.02.53c5.28-9.53,10.33-19.21,15.11-29.03.23-.46.53-.88.89-1.24l14.94-14.94c3.53-3.53,9.4.1,7.84,4.83Z"/>
    <path class="cls-2" d="M779.38,651.41c-.35.02-.71.03-1.08.03h-.51l1.59-.03Z"/>
    <path class="cls-2" d="M869.04,352.44c-.56-4.67-1.49-8.79-2.9-12.13-.02-.02-.02-.05-.03-.07-1.69-3.96-6.92-4.85-9.96-1.8l-180.11,180.11c-3.11,3.11-4.85,7.31-4.85,11.7v39.12l-79.47,79.45-83.26,83.26c-13.72.13-24.79,11.7-24.08,25.6.63,12.36,10.82,22.51,23.19,23.07,13.93.65,25.49-10.51,25.49-24.33,0-.68-.03-1.36-.1-2.02l166.49-166.49c.73-.73,1.39-1.52,1.95-2.35,1.65-2.42,2.65-5.23,2.85-8.16.03-.4.05-.79.05-1.19v-39.11l154.01-154.01c8.04-8.06,12.1-19.36,10.74-30.67ZM523.83,761.84c-2.42,6.77-9.23,11.44-16.98,10.58-7.5-.84-13.54-7.08-14.17-14.61-.58-6.79,3.13-12.81,8.71-15.67,2.68-1.39,5.76-2.02,9.02-1.69,7.48.78,13.55,6.88,14.28,14.36.25,2.48-.08,4.87-.86,7.03Z"/>
    <path class="cls-2" d="M707.09,336.62c-13.42,0-24.36,10.92-24.36,24.34s10.94,24.34,24.36,24.34,24.34-10.92,24.34-24.34-10.92-24.34-24.34-24.34ZM707.09,377.03c-8.87,0-16.09-7.2-16.09-16.07s7.22-16.07,16.09-16.07,16.07,7.2,16.07,16.07-7.2,16.07-16.07,16.07Z"/>
    <path class="cls-2" d="M352.75,625.39c-13.42,0-24.34,10.92-24.34,24.36s10.92,24.34,24.34,24.34,24.36-10.92,24.36-24.34-10.92-24.36-24.36-24.36ZM352.75,665.82c-8.85,0-16.07-7.22-16.07-16.07s7.22-16.09,16.07-16.09,16.09,7.22,16.09,16.09-7.22,16.07-16.09,16.07Z"/>
    <path class="cls-2" d="M752.76,726.33c-3.21-1.65-6.83-2.63-10.67-2.68-.15-.02-.3-.02-.45-.02-3.97,0-7.73.96-11.04,2.65-6.75,3.46-11.7,9.96-12.97,17.69-.21,1.31-.33,2.65-.33,4,0,.96.05,1.89.17,2.81.41,3.61,1.62,6.95,3.43,9.9,4.29,6.97,11.98,11.63,20.75,11.63,13.42,0,24.34-10.92,24.34-24.34,0-9.42-5.38-17.59-13.22-21.65ZM741.64,764.04c-6.54,0-12.16-3.91-14.68-9.52-.89-2-1.39-4.22-1.39-6.55,0-2.96.81-5.74,2.22-8.13,1.11-1.92,2.63-3.57,4.42-4.88,2.65-1.92,5.91-3.06,9.43-3.06,1.9,0,3.74.33,5.44.94,6.19,2.23,10.62,8.16,10.62,15.13,0,8.87-7.2,16.07-16.07,16.07Z"/>
    <path class="cls-2" d="M251.19,300.94c-3.24-1.61-6.88-2.5-10.74-2.5-13.44,0-24.36,10.92-24.36,24.34,0,1.08.07,2.15.22,3.19,1.56,11.93,11.78,21.17,24.15,21.17,2.1,0,4.14-.26,6.07-.76,5.16-1.34,9.67-4.32,12.89-8.36,3.36-4.17,5.38-9.48,5.38-15.24,0-9.57-5.54-17.87-13.6-21.85ZM240.45,338.87c-8.87,0-16.09-7.22-16.09-16.09,0-1.31.15-2.58.46-3.79,1.7-7.03,8.06-12.28,15.62-12.28.56,0,1.11.03,1.64.08,8.09.83,14.43,7.68,14.43,15.99,0,8.87-7.22,16.09-16.07,16.09Z"/>
  </g>
</svg>