<svg xmlns="http://www.w3.org/2000/svg" xmlns:xlink="http://www.w3.org/1999/xlink" width="50" zoomAndPan="magnify" viewBox="0 0 37.5 37.499999" height="50" preserveAspectRatio="xMidYMid meet" version="1.0"><defs><filter x="0%" y="0%" width="100%" height="100%" id="b377a47694"><feColorMatrix values="0 0 0 0 1 0 0 0 0 1 0 0 0 0 1 0 0 0 1 0" color-interpolation-filters="sRGB"/></filter><clipPath id="4fcf2128eb"><path d="M 0.179688 0.179688 L 36.828125 0.179688 L 36.828125 36.828125 L 0.179688 36.828125 Z M 0.179688 0.179688 " clip-rule="nonzero"/></clipPath><clipPath id="5ad3306074"><path d="M 6.097656 0.179688 L 30.90625 0.179688 C 32.476562 0.179688 33.984375 0.800781 35.09375 1.914062 C 36.203125 3.023438 36.828125 4.527344 36.828125 6.097656 L 36.828125 30.90625 C 36.828125 32.476562 36.203125 33.984375 35.09375 35.09375 C 33.984375 36.203125 32.476562 36.828125 30.90625 36.828125 L 6.097656 36.828125 C 4.527344 36.828125 3.023438 36.203125 1.914062 35.09375 C 0.800781 33.984375 0.179688 32.476562 0.179688 30.90625 L 0.179688 6.097656 C 0.179688 4.527344 0.800781 3.023438 1.914062 1.914062 C 3.023438 0.800781 4.527344 0.179688 6.097656 0.179688 Z M 6.097656 0.179688 " clip-rule="nonzero"/></clipPath><clipPath id="1d67e5da51"><path d="M 0.179688 0.179688 L 36.828125 0.179688 L 36.828125 36.828125 L 0.179688 36.828125 Z M 0.179688 0.179688 " clip-rule="nonzero"/></clipPath><clipPath id="1db1b798e3"><path d="M 6.097656 0.179688 L 30.90625 0.179688 C 32.476562 0.179688 33.984375 0.800781 35.09375 1.914062 C 36.203125 3.023438 36.828125 4.527344 36.828125 6.097656 L 36.828125 30.90625 C 36.828125 32.476562 36.203125 33.984375 35.09375 35.09375 C 33.984375 36.203125 32.476562 36.828125 30.90625 36.828125 L 6.097656 36.828125 C 4.527344 36.828125 3.023438 36.203125 1.914062 35.09375 C 0.800781 33.984375 0.179688 32.476562 0.179688 30.90625 L 0.179688 6.097656 C 0.179688 4.527344 0.800781 3.023438 1.914062 1.914062 C 3.023438 0.800781 4.527344 0.179688 6.097656 0.179688 Z M 6.097656 0.179688 " clip-rule="nonzero"/></clipPath><clipPath id="a47a1ac690"><rect x="0" width="37" y="0" height="37"/></clipPath><mask id="8dd91f4c0a"><g filter="url(#b377a47694)"><rect x="-3.75" width="45" fill="#000000" y="-3.75" height="44.999999" fill-opacity="0.95"/></g></mask><clipPath id="c5abf057d2"><path d="M 1.015625 0.734375 L 28.410156 0.734375 L 28.410156 27.914062 L 1.015625 27.914062 Z M 1.015625 0.734375 " clip-rule="nonzero"/></clipPath><clipPath id="92b49524b3"><path d="M 6.199219 0.734375 L 23.164062 0.734375 C 26.027344 0.734375 28.347656 3.054688 28.347656 5.914062 L 28.347656 22.734375 C 28.347656 25.597656 26.027344 27.914062 23.164062 27.914062 L 6.199219 27.914062 C 3.335938 27.914062 1.015625 25.597656 1.015625 22.734375 L 1.015625 5.914062 C 1.015625 3.054688 3.335938 0.734375 6.199219 0.734375 Z M 6.199219 0.734375 " clip-rule="nonzero"/></clipPath><clipPath id="326436e6ba"><path d="M 0.015625 0.734375 L 27.410156 0.734375 L 27.410156 27.914062 L 0.015625 27.914062 Z M 0.015625 0.734375 " clip-rule="nonzero"/></clipPath><clipPath id="a4bae5a416"><path d="M 5.199219 0.734375 L 22.164062 0.734375 C 25.027344 0.734375 27.347656 3.054688 27.347656 5.914062 L 27.347656 22.734375 C 27.347656 25.597656 25.027344 27.914062 22.164062 27.914062 L 5.199219 27.914062 C 2.335938 27.914062 0.015625 25.597656 0.015625 22.734375 L 0.015625 5.914062 C 0.015625 3.054688 2.335938 0.734375 5.199219 0.734375 Z M 5.199219 0.734375 " clip-rule="nonzero"/></clipPath><clipPath id="f24d6f0683"><rect x="0" width="28" y="0" height="28"/></clipPath><clipPath id="c7064ca1b1"><rect x="0" width="29" y="0" height="28"/></clipPath><clipPath id="b9ce3ff5b6"><path d="M 7.328125 7.121094 L 30.085938 7.121094 L 30.085938 29.53125 L 7.328125 29.53125 Z M 7.328125 7.121094 " clip-rule="nonzero"/></clipPath><clipPath id="c8d92b03be"><path d="M 13.25 7.121094 L 24.113281 7.121094 C 25.683594 7.121094 27.191406 7.742188 28.300781 8.855469 C 29.410156 9.964844 30.035156 11.472656 30.035156 13.042969 L 30.035156 23.609375 C 30.035156 25.179688 29.410156 26.683594 28.300781 27.796875 C 27.191406 28.90625 25.683594 29.53125 24.113281 29.53125 L 13.25 29.53125 C 11.679688 29.53125 10.171875 28.90625 9.0625 27.796875 C 7.953125 26.683594 7.328125 25.179688 7.328125 23.609375 L 7.328125 13.042969 C 7.328125 11.472656 7.953125 9.964844 9.0625 8.855469 C 10.171875 7.742188 11.679688 7.121094 13.25 7.121094 Z M 13.25 7.121094 " clip-rule="nonzero"/></clipPath><clipPath id="84c0f31ded"><path d="M 0.328125 0.121094 L 23 0.121094 L 23 22.53125 L 0.328125 22.53125 Z M 0.328125 0.121094 " clip-rule="nonzero"/></clipPath><clipPath id="ecd18b72c2"><path d="M 6.25 0.121094 L 17.113281 0.121094 C 18.683594 0.121094 20.191406 0.742188 21.300781 1.855469 C 22.410156 2.964844 23.035156 4.472656 23.035156 6.042969 L 23.035156 16.609375 C 23.035156 18.179688 22.410156 19.683594 21.300781 20.796875 C 20.191406 21.90625 18.683594 22.53125 17.113281 22.53125 L 6.25 22.53125 C 4.679688 22.53125 3.171875 21.90625 2.0625 20.796875 C 0.953125 19.683594 0.328125 18.179688 0.328125 16.609375 L 0.328125 6.042969 C 0.328125 4.472656 0.953125 2.964844 2.0625 1.855469 C 3.171875 0.742188 4.679688 0.121094 6.25 0.121094 Z M 6.25 0.121094 " clip-rule="nonzero"/></clipPath><clipPath id="510f6de120"><rect x="0" width="24" y="0" height="23"/></clipPath><clipPath id="a9360df4ce"><path d="M 11.691406 11.515625 L 25.671875 11.515625 L 25.671875 25.492188 L 11.691406 25.492188 Z M 11.691406 11.515625 " clip-rule="nonzero"/></clipPath><clipPath id="a5a927daa3"><path d="M 18.679688 11.515625 C 14.820312 11.515625 11.691406 14.644531 11.691406 18.503906 C 11.691406 22.363281 14.820312 25.492188 18.679688 25.492188 C 22.542969 25.492188 25.671875 22.363281 25.671875 18.503906 C 25.671875 14.644531 22.542969 11.515625 18.679688 11.515625 Z M 18.679688 11.515625 " clip-rule="nonzero"/></clipPath><clipPath id="32cc0f100f"><path d="M 0.691406 0.515625 L 14.671875 0.515625 L 14.671875 14.492188 L 0.691406 14.492188 Z M 0.691406 0.515625 " clip-rule="nonzero"/></clipPath><clipPath id="9fd24cf4a3"><path d="M 7.679688 0.515625 C 3.820312 0.515625 0.691406 3.644531 0.691406 7.503906 C 0.691406 11.363281 3.820312 14.492188 7.679688 14.492188 C 11.542969 14.492188 14.671875 11.363281 14.671875 7.503906 C 14.671875 3.644531 11.542969 0.515625 7.679688 0.515625 Z M 7.679688 0.515625 " clip-rule="nonzero"/></clipPath><clipPath id="2232ee3574"><rect x="0" width="15" y="0" height="15"/></clipPath><clipPath id="d9f3fc53ee"><path d="M 11.691406 11.515625 L 25.664062 11.515625 L 25.664062 25.484375 L 11.691406 25.484375 Z M 11.691406 11.515625 " clip-rule="nonzero"/></clipPath><clipPath id="ff512c915c"><path d="M 18.679688 11.515625 C 14.820312 11.515625 11.691406 14.640625 11.691406 18.5 C 11.691406 22.355469 14.820312 25.484375 18.679688 25.484375 C 22.535156 25.484375 25.664062 22.355469 25.664062 18.5 C 25.664062 14.640625 22.535156 11.515625 18.679688 11.515625 Z M 18.679688 11.515625 " clip-rule="nonzero"/></clipPath><clipPath id="2f572a1d52"><path d="M 24.1875 9.597656 L 27.503906 9.597656 L 27.503906 12.910156 L 24.1875 12.910156 Z M 24.1875 9.597656 " clip-rule="nonzero"/></clipPath><clipPath id="27d0b5e262"><path d="M 25.84375 9.597656 C 24.929688 9.597656 24.1875 10.339844 24.1875 11.253906 C 24.1875 12.167969 24.929688 12.910156 25.84375 12.910156 C 26.761719 12.910156 27.503906 12.167969 27.503906 11.253906 C 27.503906 10.339844 26.761719 9.597656 25.84375 9.597656 Z M 25.84375 9.597656 " clip-rule="nonzero"/></clipPath><clipPath id="a0d0272d0c"><path d="M 0.1875 0.597656 L 3.503906 0.597656 L 3.503906 3.910156 L 0.1875 3.910156 Z M 0.1875 0.597656 " clip-rule="nonzero"/></clipPath><clipPath id="a5bf1b55f9"><path d="M 1.84375 0.597656 C 0.929688 0.597656 0.1875 1.339844 0.1875 2.253906 C 0.1875 3.167969 0.929688 3.910156 1.84375 3.910156 C 2.761719 3.910156 3.503906 3.167969 3.503906 2.253906 C 3.503906 1.339844 2.761719 0.597656 1.84375 0.597656 Z M 1.84375 0.597656 " clip-rule="nonzero"/></clipPath><clipPath id="2f5c12089b"><rect x="0" width="4" y="0" height="4"/></clipPath><clipPath id="130646d659"><path d="M 14.097656 13.921875 L 23.265625 13.921875 L 23.265625 23.085938 L 14.097656 23.085938 Z M 14.097656 13.921875 " clip-rule="nonzero"/></clipPath><clipPath id="672881f06c"><path d="M 18.679688 13.921875 C 16.148438 13.921875 14.097656 15.972656 14.097656 18.503906 C 14.097656 21.035156 16.148438 23.085938 18.679688 23.085938 C 21.210938 23.085938 23.265625 21.035156 23.265625 18.503906 C 23.265625 15.972656 21.210938 13.921875 18.679688 13.921875 Z M 18.679688 13.921875 " clip-rule="nonzero"/></clipPath><clipPath id="128258e2b3"><path d="M 0.0976562 0.921875 L 9.265625 0.921875 L 9.265625 10.085938 L 0.0976562 10.085938 Z M 0.0976562 0.921875 " clip-rule="nonzero"/></clipPath><clipPath id="652c97a146"><path d="M 4.679688 0.921875 C 2.148438 0.921875 0.0976562 2.972656 0.0976562 5.503906 C 0.0976562 8.035156 2.148438 10.085938 4.679688 10.085938 C 7.210938 10.085938 9.265625 8.035156 9.265625 5.503906 C 9.265625 2.972656 7.210938 0.921875 4.679688 0.921875 Z M 4.679688 0.921875 " clip-rule="nonzero"/></clipPath><clipPath id="7fda851ded"><rect x="0" width="10" y="0" height="11"/></clipPath><clipPath id="7f6f0932b3"><path d="M 14.097656 13.921875 L 22.980469 13.921875 L 22.980469 22.800781 L 14.097656 22.800781 Z M 14.097656 13.921875 " clip-rule="nonzero"/></clipPath><clipPath id="4eb367dd26"><path d="M 18.679688 13.921875 C 16.148438 13.921875 14.097656 15.96875 14.097656 18.5 C 14.097656 21.027344 16.148438 23.078125 18.679688 23.078125 C 21.207031 23.078125 23.257812 21.027344 23.257812 18.5 C 23.257812 15.96875 21.207031 13.921875 18.679688 13.921875 Z M 18.679688 13.921875 " clip-rule="nonzero"/></clipPath></defs><g clip-path="url(#4fcf2128eb)"><g clip-path="url(#5ad3306074)"><g transform="matrix(1, 0, 0, 1, 0, 0)"><g clip-path="url(#a47a1ac690)"><g clip-path="url(#1d67e5da51)"><g clip-path="url(#1db1b798e3)"><path fill="#011327" d="M 0.179688 0.179688 L 36.828125 0.179688 L 36.828125 36.828125 L 0.179688 36.828125 Z M 0.179688 0.179688 " fill-opacity="1" fill-rule="nonzero"/></g></g></g></g></g></g><g mask="url(#8dd91f4c0a)"><g transform="matrix(1, 0, 0, 1, 4, 4)"><g clip-path="url(#c7064ca1b1)"><g clip-path="url(#c5abf057d2)"><g clip-path="url(#92b49524b3)"><g transform="matrix(1, 0, 0, 1, 1, 0)"><g clip-path="url(#f24d6f0683)"><g clip-path="url(#326436e6ba)"><g clip-path="url(#a4bae5a416)"><path fill="#eef3f8" d="M 0.015625 0.734375 L 27.304688 0.734375 L 27.304688 27.914062 L 0.015625 27.914062 Z M 0.015625 0.734375 " fill-opacity="1" fill-rule="nonzero"/></g></g></g></g></g></g></g></g></g><g clip-path="url(#b9ce3ff5b6)"><g clip-path="url(#c8d92b03be)"><g transform="matrix(1, 0, 0, 1, 7, 7)"><g clip-path="url(#510f6de120)"><g clip-path="url(#84c0f31ded)"><g clip-path="url(#ecd18b72c2)"><path fill="#011327" d="M 0.328125 0.121094 L 23 0.121094 L 23 22.53125 L 0.328125 22.53125 Z M 0.328125 0.121094 " fill-opacity="1" fill-rule="nonzero"/></g></g></g></g></g></g><g clip-path="url(#a9360df4ce)"><g clip-path="url(#a5a927daa3)"><g transform="matrix(1, 0, 0, 1, 11, 11)"><g clip-path="url(#2232ee3574)"><g clip-path="url(#32cc0f100f)"><g clip-path="url(#9fd24cf4a3)"><path fill="#eef3f8" d="M 0.691406 0.515625 L 14.671875 0.515625 L 14.671875 14.492188 L 0.691406 14.492188 Z M 0.691406 0.515625 " fill-opacity="1" fill-rule="nonzero"/></g></g></g></g></g></g><g clip-path="url(#d9f3fc53ee)"><g clip-path="url(#ff512c915c)"><path stroke-linecap="butt" transform="matrix(0.740132, 0, 0, 0.740132, 11.692933, 11.51463)" fill="none" stroke-linejoin="miter" d="M 9.439882 0.00134371 C 4.225437 0.00134371 -0.00206287 4.223566 -0.00206287 9.438011 C -0.00206287 14.647178 4.225437 18.874678 9.439882 18.874678 C 14.649049 18.874678 18.87655 14.647178 18.87655 9.438011 C 18.87655 4.223566 14.649049 0.00134371 9.439882 0.00134371 Z M 9.439882 0.00134371 " stroke="#eef3f8" stroke-width="66" stroke-opacity="1" stroke-miterlimit="4"/></g></g><g clip-path="url(#2f572a1d52)"><g clip-path="url(#27d0b5e262)"><g transform="matrix(1, 0, 0, 1, 24, 9)"><g clip-path="url(#2f5c12089b)"><g clip-path="url(#a0d0272d0c)"><g clip-path="url(#a5bf1b55f9)"><path fill="#eef3f8" d="M 0.1875 0.597656 L 3.503906 0.597656 L 3.503906 3.910156 L 0.1875 3.910156 Z M 0.1875 0.597656 " fill-opacity="1" fill-rule="nonzero"/></g></g></g></g></g></g><g clip-path="url(#130646d659)"><g clip-path="url(#672881f06c)"><g transform="matrix(1, 0, 0, 1, 14, 13)"><g clip-path="url(#7fda851ded)"><g clip-path="url(#128258e2b3)"><g clip-path="url(#652c97a146)"><path fill="#011327" d="M 0.0976562 0.921875 L 9.265625 0.921875 L 9.265625 10.085938 L 0.0976562 10.085938 Z M 0.0976562 0.921875 " fill-opacity="1" fill-rule="nonzero"/></g></g></g></g></g></g><g clip-path="url(#7f6f0932b3)"><g clip-path="url(#4eb367dd26)"><path stroke-linecap="butt" transform="matrix(0.740132, 0, 0, 0.740132, 14.098361, 13.920057)" fill="none" stroke-linejoin="miter" d="M 6.189882 0.00245601 C 2.769882 0.00245601 -0.000951534 2.768012 -0.000951534 6.188012 C -0.000951534 9.602734 2.769882 12.373568 6.189882 12.373568 C 9.604605 12.373568 12.375438 9.602734 12.375438 6.188012 C 12.375438 2.768012 9.604605 0.00245601 6.189882 0.00245601 Z M 6.189882 0.00245601 " stroke="#011327" stroke-width="66" stroke-opacity="1" stroke-miterlimit="4"/></g></g></svg>