<svg xmlns="http://www.w3.org/2000/svg" xmlns:xlink="http://www.w3.org/1999/xlink" width="750" zoomAndPan="magnify" viewBox="0 0 562.5 374.999991" height="500" preserveAspectRatio="xMidYMid meet" version="1.0"><defs><filter x="0%" y="0%" width="100%" height="100%" id="19ed41e7b7"><feColorMatrix values="0 0 0 0 1 0 0 0 0 1 0 0 0 0 1 0 0 0 1 0" color-interpolation-filters="sRGB"/></filter><g/><clipPath id="ea597faff0"><path d="M 0 0.167969 L 562 0.167969 L 562 374.832031 L 0 374.832031 Z M 0 0.167969 " clip-rule="nonzero"/></clipPath><mask id="bc3e237678"><g filter="url(#19ed41e7b7)"><rect x="-56.25" width="675" fill="#000000" y="-37.499999" height="449.999989" fill-opacity="0.98"/></g></mask><clipPath id="d62131d563"><path d="M 0 0.167969 L 562 0.167969 L 562 374.832031 L 0 374.832031 Z M 0 0.167969 " clip-rule="nonzero"/></clipPath><clipPath id="8c82a463c5"><path d="M 0 0.167969 L 562 0.167969 L 562 374.832031 L 0 374.832031 Z M 0 0.167969 " clip-rule="nonzero"/></clipPath><clipPath id="084904ff4b"><rect x="0" width="562" y="0" height="375"/></clipPath><clipPath id="49758edb60"><rect x="0" width="562" y="0" height="375"/></clipPath><clipPath id="6eda6ee83e"><path d="M 37.464844 148 L 289.992188 148 L 289.992188 319 L 37.464844 319 Z M 37.464844 148 " clip-rule="nonzero"/></clipPath><clipPath id="5370536c0a"><path d="M 95.207031 155 L 203 155 L 203 244.742188 L 95.207031 244.742188 Z M 95.207031 155 " clip-rule="nonzero"/></clipPath><clipPath id="c78208de83"><path d="M 95.207031 154 L 166 154 L 166 234 L 95.207031 234 Z M 95.207031 154 " clip-rule="nonzero"/></clipPath><clipPath id="add72e6247"><path d="M 109 192 L 183 192 L 183 244.742188 L 109 244.742188 Z M 109 192 " clip-rule="nonzero"/></clipPath><clipPath id="ebe9e3a2c9"><path d="M 95.207031 114 L 201 114 L 201 213 L 95.207031 213 Z M 95.207031 114 " clip-rule="nonzero"/></clipPath><clipPath id="02fb8d86f2"><path d="M 148 171 L 233 171 L 233 244.742188 L 148 244.742188 Z M 148 171 " clip-rule="nonzero"/></clipPath><clipPath id="20536ec608"><path d="M 95.207031 121 L 162 121 L 162 178 L 95.207031 178 Z M 95.207031 121 " clip-rule="nonzero"/></clipPath><clipPath id="fd7f86c961"><path d="M 168 182 L 250.316406 182 L 250.316406 242 L 168 242 Z M 168 182 " clip-rule="nonzero"/></clipPath><clipPath id="8ced32f9e4"><path d="M 160 98.621094 L 170 98.621094 L 170 108 L 160 108 Z M 160 98.621094 " clip-rule="nonzero"/></clipPath><clipPath id="7e1882db12"><rect x="0" width="186" y="0" height="112"/></clipPath></defs><g clip-path="url(#ea597faff0)"><g mask="url(#bc3e237678)"><g transform="matrix(1, 0, 0, 1, 0, -0.00000000000001768)"><g clip-path="url(#49758edb60)"><g clip-path="url(#d62131d563)"><g transform="matrix(1, 0, 0, 1, 0, -0.00000000000001768)"><g clip-path="url(#084904ff4b)"><g clip-path="url(#8c82a463c5)"><path fill="#011327" d="M 0 0.167969 L 562 0.167969 L 562 374.832031 L 0 374.832031 Z M 0 0.167969 " fill-opacity="1" fill-rule="nonzero"/></g></g></g></g></g></g></g></g><path fill="#dae9f6" d="M 41.121094 125.148438 C 45.496094 179.285156 71.121094 231.394531 110.460938 267.214844 C 74.28125 225.210938 52.128906 171.210938 52.445312 116.800781 C 52.894531 115.085938 54.25 113.914062 55.691406 113.011719 C 87.679688 91.3125 125.710938 74.574219 163.921875 69.429688 C 186.886719 71.820312 211.203125 80.394531 232.453125 90.09375 C 246.617188 96.636719 260.199219 104.53125 272.921875 113.597656 C 276.484375 116.167969 275.175781 119.238281 275.222656 124.378906 C 272.964844 176.441406 251.941406 226.925781 217.160156 267.214844 C 254.152344 233.421875 279.144531 185.554688 285.507812 134.667969 C 286.183594 130.109375 286.546875 124.96875 286.953125 120.320312 C 287.855469 114.769531 285.148438 107.191406 280.046875 103.851562 C 249.054688 80.347656 212.738281 64.152344 174.570312 56.617188 C 164.78125 53.867188 153.457031 56.347656 143.890625 58.828125 C 109.246094 67.21875 76.402344 82.648438 47.796875 103.851562 C 42.699219 107.148438 39.859375 114.726562 40.804688 120.273438 C 40.714844 120.367188 41.121094 125.148438 41.121094 125.148438 Z M 41.121094 125.148438 " fill-opacity="1" fill-rule="nonzero"/><g clip-path="url(#6eda6ee83e)"><path fill="#dae9f6" d="M 243.910156 243.800781 C 224.691406 267.53125 200.554688 287.199219 173.351562 301.140625 C 170.464844 302.71875 167.125 304.207031 163.789062 304.074219 C 160.449219 304.207031 157.109375 302.71875 154.222656 301.140625 C 127.019531 287.199219 102.929688 267.484375 83.664062 243.800781 C 61.648438 216.503906 46.082031 183.839844 37.464844 148.878906 C 42.65625 219.753906 89.621094 287.652344 155.082031 316.75 C 168.390625 321.488281 180.839844 313.1875 191.847656 306.597656 C 215.578125 292.253906 236.46875 272.941406 252.617188 250.429688 C 274.140625 220.429688 287.265625 184.835938 290.109375 148.878906 C 281.492188 183.839844 265.929688 216.503906 243.910156 243.800781 Z M 243.910156 243.800781 " fill-opacity="1" fill-rule="nonzero"/></g><g clip-path="url(#5370536c0a)"><path fill="#d3f2ee" d="M 96.078125 245.023438 C 95.882812 245.023438 95.6875 244.949219 95.539062 244.796875 C 95.238281 244.5 95.238281 244.019531 95.539062 243.71875 L 142.785156 196.472656 L 151.265625 196.472656 L 165.15625 182.578125 L 174.265625 182.578125 L 200.972656 155.871094 C 201.273438 155.574219 201.753906 155.574219 202.050781 155.871094 C 202.351562 156.171875 202.351562 156.652344 202.050781 156.953125 L 174.90625 184.101562 L 165.796875 184.101562 L 151.902344 197.992188 L 143.414062 197.992188 L 96.617188 244.796875 C 96.46875 244.949219 96.273438 245.023438 96.078125 245.023438 Z M 96.078125 245.023438 " fill-opacity="1" fill-rule="nonzero"/></g><g clip-path="url(#c78208de83)"><path fill="#dae9f6" d="M 96.078125 233.066406 C 95.882812 233.066406 95.6875 232.992188 95.539062 232.839844 C 95.238281 232.539062 95.238281 232.0625 95.539062 231.761719 L 141.097656 186.199219 L 141.097656 177.800781 L 164.414062 154.484375 C 164.714844 154.1875 165.195312 154.1875 165.496094 154.484375 C 165.796875 154.785156 165.796875 155.265625 165.496094 155.566406 L 142.628906 178.433594 L 142.628906 186.828125 L 96.617188 232.839844 C 96.46875 232.992188 96.273438 233.066406 96.078125 233.066406 Z M 96.078125 233.066406 " fill-opacity="1" fill-rule="nonzero"/></g><path fill="#dae9f6" d="M 171.367188 171.046875 C 171.171875 171.046875 170.976562 170.972656 170.824219 170.820312 C 170.527344 170.523438 170.527344 170.042969 170.824219 169.742188 L 201.941406 138.628906 C 202.238281 138.328125 202.71875 138.328125 203.019531 138.628906 C 203.320312 138.929688 203.320312 139.410156 203.019531 139.707031 L 171.90625 170.820312 C 171.753906 170.972656 171.5625 171.046875 171.367188 171.046875 Z M 171.367188 171.046875 " fill-opacity="1" fill-rule="nonzero"/><g clip-path="url(#add72e6247)"><path fill="#dae9f6" d="M 110.128906 245.023438 C 109.933594 245.023438 109.738281 244.949219 109.585938 244.796875 C 109.289062 244.5 109.289062 244.019531 109.585938 243.71875 L 130.8125 222.492188 L 151.265625 222.492188 L 181.324219 192.4375 C 181.621094 192.136719 182.101562 192.136719 182.402344 192.4375 C 182.703125 192.738281 182.703125 193.21875 182.402344 193.515625 L 151.894531 224.023438 L 131.441406 224.023438 L 110.667969 244.796875 C 110.515625 244.949219 110.324219 245.023438 110.128906 245.023438 Z M 110.128906 245.023438 " fill-opacity="1" fill-rule="nonzero"/></g><g clip-path="url(#ebe9e3a2c9)"><path fill="#d3f2ee" d="M 96.078125 212.394531 C 95.882812 212.394531 95.6875 212.320312 95.539062 212.171875 C 95.238281 211.871094 95.238281 211.390625 95.539062 211.089844 L 138.820312 167.808594 L 138.820312 161.804688 L 168.832031 131.789062 L 181.734375 131.789062 L 199.097656 114.425781 C 199.398438 114.128906 199.878906 114.128906 200.179688 114.425781 C 200.476562 114.726562 200.476562 115.207031 200.179688 115.507812 L 182.371094 133.3125 L 169.46875 133.3125 L 140.347656 162.441406 L 140.347656 168.445312 L 140.125 168.671875 L 96.617188 212.171875 C 96.46875 212.320312 96.273438 212.394531 96.078125 212.394531 Z M 96.078125 212.394531 " fill-opacity="1" fill-rule="nonzero"/></g><g clip-path="url(#02fb8d86f2)"><path fill="#dae9f6" d="M 148.792969 245.023438 C 148.597656 245.023438 148.402344 244.949219 148.25 244.796875 C 147.953125 244.5 147.953125 244.019531 148.25 243.71875 L 187.199219 204.769531 L 198.054688 204.769531 L 231.425781 171.398438 C 231.726562 171.101562 232.207031 171.101562 232.507812 171.398438 C 232.808594 171.699219 232.808594 172.179688 232.507812 172.480469 L 198.695312 206.292969 L 187.832031 206.292969 L 149.332031 244.796875 C 149.179688 244.949219 148.984375 245.023438 148.792969 245.023438 Z M 148.792969 245.023438 " fill-opacity="1" fill-rule="nonzero"/></g><g clip-path="url(#20536ec608)"><path fill="#dae9f6" d="M 96.078125 177.269531 C 95.882812 177.269531 95.6875 177.195312 95.539062 177.046875 C 95.238281 176.746094 95.238281 176.265625 95.539062 175.964844 L 118.15625 153.347656 L 128.578125 153.347656 L 159.933594 121.992188 C 160.230469 121.691406 160.710938 121.691406 161.011719 121.992188 C 161.3125 122.292969 161.3125 122.773438 161.011719 123.070312 L 129.207031 154.875 L 118.785156 154.875 L 96.617188 177.046875 C 96.46875 177.195312 96.273438 177.269531 96.078125 177.269531 Z M 96.078125 177.269531 " fill-opacity="1" fill-rule="nonzero"/></g><g clip-path="url(#fd7f86c961)"><path fill="#d3f2ee" d="M 169.296875 241.253906 C 169.101562 241.253906 168.90625 241.175781 168.757812 241.027344 C 168.457031 240.726562 168.457031 240.246094 168.757812 239.949219 L 186.628906 222.074219 L 203.214844 222.074219 L 226.660156 198.628906 L 232.730469 198.628906 L 249.128906 182.234375 C 249.429688 181.933594 249.910156 181.933594 250.207031 182.234375 C 250.507812 182.53125 250.507812 183.011719 250.207031 183.3125 L 233.363281 200.160156 L 227.289062 200.160156 L 203.84375 223.605469 L 187.261719 223.605469 L 169.835938 241.027344 C 169.695312 241.175781 169.5 241.253906 169.296875 241.253906 Z M 169.296875 241.253906 " fill-opacity="1" fill-rule="nonzero"/></g><path fill="#d3f2ee" d="M 128.894531 139.925781 C 128.699219 139.925781 128.503906 139.851562 128.351562 139.699219 C 128.054688 139.402344 128.054688 138.921875 128.351562 138.621094 L 161.851562 105.121094 C 162.152344 104.824219 162.632812 104.824219 162.929688 105.121094 C 163.230469 105.421875 163.230469 105.902344 162.929688 106.203125 L 129.433594 139.707031 C 129.28125 139.859375 129.089844 139.925781 128.894531 139.925781 Z M 128.894531 139.925781 " fill-opacity="1" fill-rule="nonzero"/><path fill="#dae9f6" d="M 167.59375 157.199219 C 165.097656 157.199219 163.066406 155.167969 163.066406 152.671875 C 163.066406 150.175781 165.097656 148.144531 167.59375 148.144531 C 170.089844 148.144531 172.125 150.175781 172.125 152.671875 C 172.128906 155.167969 170.089844 157.199219 167.59375 157.199219 Z M 167.59375 149.664062 C 165.9375 149.664062 164.589844 151.015625 164.589844 152.671875 C 164.589844 154.328125 165.9375 155.675781 167.59375 155.675781 C 169.25 155.675781 170.601562 154.328125 170.601562 152.671875 C 170.601562 151.015625 169.25 149.664062 167.59375 149.664062 Z M 167.59375 149.664062 " fill-opacity="1" fill-rule="nonzero"/><g clip-path="url(#8ced32f9e4)"><path fill="#d3f2ee" d="M 164.957031 107.679688 C 162.460938 107.679688 160.425781 105.648438 160.425781 103.152344 C 160.425781 100.65625 162.460938 98.621094 164.957031 98.621094 C 167.453125 98.621094 169.484375 100.65625 169.484375 103.152344 C 169.484375 105.648438 167.453125 107.679688 164.957031 107.679688 Z M 164.957031 100.144531 C 163.296875 100.144531 161.949219 101.492188 161.949219 103.152344 C 161.949219 104.808594 163.296875 106.15625 164.957031 106.15625 C 166.613281 106.15625 167.960938 104.808594 167.960938 103.152344 C 167.960938 101.492188 166.613281 100.144531 164.957031 100.144531 Z M 164.957031 100.144531 " fill-opacity="1" fill-rule="nonzero"/></g><path fill="#d3f2ee" d="M 206.25 155.023438 C 206.25 155.523438 206.15625 156.007812 205.964844 156.46875 C 205.773438 156.929688 205.5 157.339844 205.148438 157.691406 C 204.792969 158.046875 204.386719 158.316406 203.921875 158.507812 C 203.460938 158.699219 202.980469 158.796875 202.480469 158.796875 C 201.980469 158.796875 201.5 158.699219 201.035156 158.507812 C 200.574219 158.316406 200.167969 158.046875 199.8125 157.691406 C 199.460938 157.339844 199.1875 156.929688 198.996094 156.46875 C 198.804688 156.007812 198.707031 155.523438 198.707031 155.023438 C 198.707031 154.523438 198.804688 154.042969 198.996094 153.582031 C 199.1875 153.121094 199.460938 152.710938 199.8125 152.359375 C 200.167969 152.003906 200.574219 151.734375 201.035156 151.542969 C 201.5 151.351562 201.980469 151.253906 202.480469 151.253906 C 202.980469 151.253906 203.460938 151.351562 203.921875 151.542969 C 204.386719 151.734375 204.792969 152.003906 205.148438 152.359375 C 205.5 152.710938 205.773438 153.121094 205.964844 153.582031 C 206.15625 154.042969 206.25 154.523438 206.25 155.023438 Z M 206.25 155.023438 " fill-opacity="1" fill-rule="nonzero"/><path fill="#d3f2ee" d="M 203.410156 114.96875 C 203.410156 115.46875 203.3125 115.949219 203.121094 116.410156 C 202.929688 116.871094 202.660156 117.28125 202.304688 117.632812 C 201.953125 117.988281 201.542969 118.257812 201.082031 118.449219 C 200.621094 118.640625 200.136719 118.738281 199.636719 118.738281 C 199.136719 118.738281 198.65625 118.640625 198.195312 118.449219 C 197.734375 118.257812 197.324219 117.988281 196.972656 117.632812 C 196.617188 117.28125 196.347656 116.871094 196.15625 116.410156 C 195.964844 115.949219 195.867188 115.46875 195.867188 114.96875 C 195.867188 114.464844 195.964844 113.984375 196.15625 113.523438 C 196.347656 113.0625 196.617188 112.652344 196.972656 112.300781 C 197.324219 111.945312 197.734375 111.675781 198.195312 111.484375 C 198.65625 111.292969 199.136719 111.195312 199.636719 111.195312 C 200.136719 111.195312 200.621094 111.292969 201.082031 111.484375 C 201.542969 111.675781 201.953125 111.945312 202.304688 112.300781 C 202.660156 112.652344 202.929688 113.0625 203.121094 113.523438 C 203.3125 113.984375 203.410156 114.464844 203.410156 114.96875 Z M 203.410156 114.96875 " fill-opacity="1" fill-rule="nonzero"/><path fill="#dae9f6" d="M 185.632812 192.976562 C 185.632812 193.476562 185.539062 193.957031 185.347656 194.421875 C 185.15625 194.882812 184.882812 195.289062 184.527344 195.644531 C 184.175781 195.996094 183.765625 196.269531 183.304688 196.460938 C 182.84375 196.652344 182.363281 196.75 181.863281 196.75 C 181.363281 196.75 180.882812 196.652344 180.417969 196.460938 C 179.957031 196.269531 179.550781 195.996094 179.195312 195.644531 C 178.84375 195.289062 178.570312 194.882812 178.378906 194.421875 C 178.1875 193.957031 178.089844 193.476562 178.089844 192.976562 C 178.089844 192.476562 178.1875 191.996094 178.378906 191.535156 C 178.570312 191.070312 178.84375 190.664062 179.195312 190.308594 C 179.550781 189.957031 179.957031 189.683594 180.417969 189.492188 C 180.882812 189.300781 181.363281 189.207031 181.863281 189.207031 C 182.363281 189.207031 182.84375 189.300781 183.304688 189.492188 C 183.765625 189.683594 184.175781 189.957031 184.527344 190.308594 C 184.882812 190.664062 185.15625 191.070312 185.347656 191.535156 C 185.539062 191.996094 185.632812 192.476562 185.632812 192.976562 Z M 185.632812 192.976562 " fill-opacity="1" fill-rule="nonzero"/><g transform="matrix(1, 0, 0, 1, 339, 106)"><g clip-path="url(#7e1882db12)"><g fill="#dae9f6" fill-opacity="1"><g transform="translate(0.291831, 83.560481)"><g><path d="M 16.265625 -54.828125 L 16.265625 -20.890625 C 16.265625 -17.171875 17.234375 -14.328125 19.171875 -12.359375 C 21.109375 -10.398438 23.828125 -9.421875 27.328125 -9.421875 C 30.890625 -9.421875 33.640625 -10.398438 35.578125 -12.359375 C 37.515625 -14.328125 38.484375 -17.171875 38.484375 -20.890625 L 38.484375 -54.828125 L 49.5625 -54.828125 L 49.5625 -20.96875 C 49.5625 -16.3125 48.550781 -12.367188 46.53125 -9.140625 C 44.519531 -5.921875 41.820312 -3.5 38.4375 -1.875 C 35.0625 -0.257812 31.304688 0.546875 27.171875 0.546875 C 23.085938 0.546875 19.382812 -0.257812 16.0625 -1.875 C 12.738281 -3.5 10.109375 -5.921875 8.171875 -9.140625 C 6.234375 -12.367188 5.265625 -16.3125 5.265625 -20.96875 L 5.265625 -54.828125 Z M 16.265625 -54.828125 "/></g></g></g><g fill="#dae9f6" fill-opacity="1"><g transform="translate(55.039503, 83.560481)"><g><path d="M 38.25 0 L 26.390625 -18.453125 L 15.625 0 L 3.21875 0 L 20.5 -27.65625 L 2.984375 -54.828125 L 15.625 -54.828125 L 27.484375 -36.453125 L 38.171875 -54.828125 L 50.578125 -54.828125 L 33.375 -27.25 L 50.890625 0 Z M 38.25 0 "/></g></g></g><g fill="#dae9f6" fill-opacity="1"><g transform="translate(108.923151, 83.560481)"><g><path d="M 16.265625 -54.828125 L 16.265625 -20.890625 C 16.265625 -17.171875 17.234375 -14.328125 19.171875 -12.359375 C 21.109375 -10.398438 23.828125 -9.421875 27.328125 -9.421875 C 30.890625 -9.421875 33.640625 -10.398438 35.578125 -12.359375 C 37.515625 -14.328125 38.484375 -17.171875 38.484375 -20.890625 L 38.484375 -54.828125 L 49.5625 -54.828125 L 49.5625 -20.96875 C 49.5625 -16.3125 48.550781 -12.367188 46.53125 -9.140625 C 44.519531 -5.921875 41.820312 -3.5 38.4375 -1.875 C 35.0625 -0.257812 31.304688 0.546875 27.171875 0.546875 C 23.085938 0.546875 19.382812 -0.257812 16.0625 -1.875 C 12.738281 -3.5 10.109375 -5.921875 8.171875 -9.140625 C 6.234375 -12.367188 5.265625 -16.3125 5.265625 -20.96875 L 5.265625 -54.828125 Z M 16.265625 -54.828125 "/></g></g></g><g fill="#dae9f6" fill-opacity="1"><g transform="translate(163.670824, 83.560481)"><g><path d="M 16.421875 -54.828125 L 16.421875 0 L 5.421875 0 L 5.421875 -54.828125 Z M 16.421875 -54.828125 "/></g></g></g></g></g><g fill="#dae9f6" fill-opacity="1"><g transform="translate(401.689536, 253.274805)"><g><path d="M 7.203125 0.125 C 5.992188 0.125 4.84375 -0.0820312 3.75 -0.5 C 2.664062 -0.914062 1.816406 -1.457031 1.203125 -2.125 L 1.75 -3.015625 C 2.320312 -2.398438 3.097656 -1.898438 4.078125 -1.515625 C 5.066406 -1.128906 6.101562 -0.9375 7.1875 -0.9375 C 8.757812 -0.9375 9.945312 -1.234375 10.75 -1.828125 C 11.550781 -2.429688 11.953125 -3.210938 11.953125 -4.171875 C 11.953125 -4.910156 11.738281 -5.5 11.3125 -5.9375 C 10.882812 -6.375 10.351562 -6.707031 9.71875 -6.9375 C 9.09375 -7.175781 8.25 -7.425781 7.1875 -7.6875 C 5.976562 -7.976562 5.007812 -8.265625 4.28125 -8.546875 C 3.550781 -8.835938 2.929688 -9.273438 2.421875 -9.859375 C 1.910156 -10.453125 1.65625 -11.242188 1.65625 -12.234375 C 1.65625 -13.035156 1.863281 -13.769531 2.28125 -14.4375 C 2.707031 -15.101562 3.351562 -15.628906 4.21875 -16.015625 C 5.09375 -16.410156 6.1875 -16.609375 7.5 -16.609375 C 8.40625 -16.609375 9.296875 -16.472656 10.171875 -16.203125 C 11.054688 -15.941406 11.820312 -15.582031 12.46875 -15.125 L 12.015625 -14.15625 C 11.359375 -14.613281 10.628906 -14.957031 9.828125 -15.1875 C 9.035156 -15.425781 8.257812 -15.546875 7.5 -15.546875 C 5.96875 -15.546875 4.804688 -15.238281 4.015625 -14.625 C 3.234375 -14.019531 2.84375 -13.226562 2.84375 -12.25 C 2.84375 -11.507812 3.054688 -10.921875 3.484375 -10.484375 C 3.910156 -10.046875 4.4375 -9.707031 5.0625 -9.46875 C 5.695312 -9.238281 6.554688 -8.988281 7.640625 -8.71875 C 8.847656 -8.414062 9.8125 -8.125 10.53125 -7.84375 C 11.25 -7.5625 11.863281 -7.132812 12.375 -6.5625 C 12.882812 -5.988281 13.140625 -5.210938 13.140625 -4.234375 C 13.140625 -3.441406 12.925781 -2.710938 12.5 -2.046875 C 12.070312 -1.390625 11.410156 -0.863281 10.515625 -0.46875 C 9.617188 -0.0703125 8.515625 0.125 7.203125 0.125 Z M 7.203125 0.125 "/></g></g></g><g fill="#dae9f6" fill-opacity="1"><g transform="translate(416.507141, 253.274805)"><g><path d="M 2.359375 0.09375 C 2.085938 0.09375 1.851562 -0.00390625 1.65625 -0.203125 C 1.457031 -0.398438 1.359375 -0.640625 1.359375 -0.921875 C 1.359375 -1.203125 1.457031 -1.4375 1.65625 -1.625 C 1.851562 -1.8125 2.085938 -1.90625 2.359375 -1.90625 C 2.617188 -1.90625 2.847656 -1.8125 3.046875 -1.625 C 3.242188 -1.4375 3.34375 -1.203125 3.34375 -0.921875 C 3.34375 -0.640625 3.242188 -0.398438 3.046875 -0.203125 C 2.847656 -0.00390625 2.617188 0.09375 2.359375 0.09375 Z M 2.359375 0.09375 "/></g></g></g><g fill="#dae9f6" fill-opacity="1"><g transform="translate(420.74723, 253.274805)"><g><path d="M 9.84375 0.125 C 8.226562 0.125 6.769531 -0.234375 5.46875 -0.953125 C 4.175781 -1.679688 3.15625 -2.679688 2.40625 -3.953125 C 1.664062 -5.222656 1.296875 -6.65625 1.296875 -8.25 C 1.296875 -9.832031 1.664062 -11.257812 2.40625 -12.53125 C 3.15625 -13.800781 4.175781 -14.796875 5.46875 -15.515625 C 6.769531 -16.242188 8.226562 -16.609375 9.84375 -16.609375 C 11.039062 -16.609375 12.140625 -16.414062 13.140625 -16.03125 C 14.148438 -15.644531 15.007812 -15.078125 15.71875 -14.328125 L 14.96875 -13.546875 C 13.644531 -14.847656 11.953125 -15.5 9.890625 -15.5 C 8.515625 -15.5 7.257812 -15.1875 6.125 -14.5625 C 5 -13.9375 4.113281 -13.066406 3.46875 -11.953125 C 2.820312 -10.847656 2.5 -9.613281 2.5 -8.25 C 2.5 -6.882812 2.820312 -5.644531 3.46875 -4.53125 C 4.113281 -3.425781 5 -2.554688 6.125 -1.921875 C 7.257812 -1.296875 8.515625 -0.984375 9.890625 -0.984375 C 11.929688 -0.984375 13.625 -1.644531 14.96875 -2.96875 L 15.71875 -2.1875 C 15.007812 -1.4375 14.144531 -0.863281 13.125 -0.46875 C 12.113281 -0.0703125 11.019531 0.125 9.84375 0.125 Z M 9.84375 0.125 "/></g></g></g><g fill="#dae9f6" fill-opacity="1"><g transform="translate(437.94404, 253.274805)"><g><path d="M 2.359375 0.09375 C 2.085938 0.09375 1.851562 -0.00390625 1.65625 -0.203125 C 1.457031 -0.398438 1.359375 -0.640625 1.359375 -0.921875 C 1.359375 -1.203125 1.457031 -1.4375 1.65625 -1.625 C 1.851562 -1.8125 2.085938 -1.90625 2.359375 -1.90625 C 2.617188 -1.90625 2.847656 -1.8125 3.046875 -1.625 C 3.242188 -1.4375 3.34375 -1.203125 3.34375 -0.921875 C 3.34375 -0.640625 3.242188 -0.398438 3.046875 -0.203125 C 2.847656 -0.00390625 2.617188 0.09375 2.359375 0.09375 Z M 2.359375 0.09375 "/></g></g></g><g fill="#dae9f6" fill-opacity="1"><g transform="translate(442.655459, 253.274805)"><g><path d="M 2.875 -16.5 L 9.40625 -16.5 C 11.113281 -16.5 12.628906 -16.144531 13.953125 -15.4375 C 15.285156 -14.726562 16.320312 -13.75 17.0625 -12.5 C 17.800781 -11.25 18.171875 -9.832031 18.171875 -8.25 C 18.171875 -6.65625 17.800781 -5.234375 17.0625 -3.984375 C 16.320312 -2.742188 15.285156 -1.769531 13.953125 -1.0625 C 12.628906 -0.351562 11.113281 0 9.40625 0 L 2.875 0 Z M 9.3125 -1.078125 C 10.832031 -1.078125 12.171875 -1.378906 13.328125 -1.984375 C 14.492188 -2.585938 15.390625 -3.429688 16.015625 -4.515625 C 16.648438 -5.609375 16.96875 -6.851562 16.96875 -8.25 C 16.96875 -9.644531 16.648438 -10.882812 16.015625 -11.96875 C 15.390625 -13.050781 14.492188 -13.894531 13.328125 -14.5 C 12.171875 -15.101562 10.832031 -15.40625 9.3125 -15.40625 L 4.078125 -15.40625 L 4.078125 -1.078125 Z M 9.3125 -1.078125 "/></g></g></g></svg>