<svg xmlns="http://www.w3.org/2000/svg" xmlns:xlink="http://www.w3.org/1999/xlink" width="750" zoomAndPan="magnify" viewBox="0 0 562.5 374.999991" height="500" preserveAspectRatio="xMidYMid meet" version="1.0"><defs><filter x="0%" y="0%" width="100%" height="100%" id="416cce7a4c"><feColorMatrix values="0 0 0 0 1 0 0 0 0 1 0 0 0 0 1 0 0 0 1 0" color-interpolation-filters="sRGB"/></filter><g/><clipPath id="c375d2a7f5"><path d="M 0 0.167969 L 562 0.167969 L 562 374.832031 L 0 374.832031 Z M 0 0.167969 " clip-rule="nonzero"/></clipPath><mask id="10044e8e53"><g filter="url(#416cce7a4c)"><rect x="-56.25" width="675" fill="#000000" y="-37.499999" height="449.999989" fill-opacity="0.95"/></g></mask><clipPath id="51f8648d79"><path d="M 0 0.167969 L 562 0.167969 L 562 374.832031 L 0 374.832031 Z M 0 0.167969 " clip-rule="nonzero"/></clipPath><clipPath id="c37488fee2"><path d="M 0 0.167969 L 562 0.167969 L 562 374.832031 L 0 374.832031 Z M 0 0.167969 " clip-rule="nonzero"/></clipPath><clipPath id="605f0b3c3f"><rect x="0" width="562" y="0" height="375"/></clipPath><clipPath id="7e435ec8d3"><rect x="0" width="562" y="0" height="375"/></clipPath><clipPath id="50b63dc25d"><path d="M 0.464844 97 L 253.261719 97 L 253.261719 268 L 0.464844 268 Z M 0.464844 97 " clip-rule="nonzero"/></clipPath><clipPath id="b6c986c017"><path d="M 65.1875 114 L 158 114 L 158 191.363281 L 65.1875 191.363281 Z M 65.1875 114 " clip-rule="nonzero"/></clipPath><clipPath id="39a1dd2c57"><path d="M 65.1875 113 L 126 113 L 126 182 L 65.1875 182 Z M 65.1875 113 " clip-rule="nonzero"/></clipPath><clipPath id="b3c997300c"><path d="M 77 146 L 141 146 L 141 191.363281 L 77 191.363281 Z M 77 146 " clip-rule="nonzero"/></clipPath><clipPath id="56969c4132"><path d="M 65.1875 78 L 156 78 L 156 164 L 65.1875 164 Z M 65.1875 78 " clip-rule="nonzero"/></clipPath><clipPath id="09a9fb3ad8"><path d="M 110 127 L 184 127 L 184 191.363281 L 110 191.363281 Z M 110 127 " clip-rule="nonzero"/></clipPath><clipPath id="2789384eb2"><path d="M 65.1875 85 L 123 85 L 123 134 L 65.1875 134 Z M 65.1875 85 " clip-rule="nonzero"/></clipPath><clipPath id="82233b0b39"><path d="M 128 137 L 198.820312 137 L 198.820312 189 L 128 189 Z M 128 137 " clip-rule="nonzero"/></clipPath><clipPath id="46b0918338"><path d="M 121 65.390625 L 130 65.390625 L 130 74 L 121 74 Z M 121 65.390625 " clip-rule="nonzero"/></clipPath><clipPath id="ad8711ceee"><rect x="0" width="258" y="0" height="272"/></clipPath><clipPath id="e08e2e64c2"><rect x="0" width="186" y="0" height="112"/></clipPath></defs><g clip-path="url(#c375d2a7f5)"><g mask="url(#10044e8e53)"><g transform="matrix(1, 0, 0, 1, 0, -0.00000000000001768)"><g clip-path="url(#7e435ec8d3)"><g clip-path="url(#51f8648d79)"><g transform="matrix(1, 0, 0, 1, 0, -0.00000000000001768)"><g clip-path="url(#605f0b3c3f)"><g clip-path="url(#c37488fee2)"><path fill="#011512" d="M 0 0.167969 L 562 0.167969 L 562 374.832031 L 0 374.832031 Z M 0 0.167969 " fill-opacity="1" fill-rule="nonzero"/></g></g></g></g></g></g></g></g><g transform="matrix(1, 0, 0, 1, 37, 51)"><g clip-path="url(#ad8711ceee)"><path fill="#d3f2ee" d="M 4.121094 74.148438 C 8.496094 128.285156 34.121094 180.394531 73.464844 216.21875 C 37.28125 174.214844 15.128906 120.210938 15.445312 65.800781 C 15.894531 64.085938 17.25 62.914062 18.695312 62.011719 C 50.679688 40.3125 88.714844 23.574219 126.925781 18.429688 C 149.890625 20.820312 174.207031 29.394531 195.457031 39.09375 C 209.621094 45.632812 223.203125 53.53125 235.925781 62.597656 C 239.488281 65.167969 238.179688 68.238281 238.226562 73.378906 C 235.96875 125.445312 214.945312 175.929688 180.164062 216.21875 C 217.15625 182.425781 242.152344 134.558594 248.511719 83.667969 C 249.1875 79.109375 249.550781 73.96875 249.957031 69.320312 C 250.859375 63.769531 248.152344 56.191406 243.054688 52.851562 C 212.058594 29.347656 175.742188 13.152344 137.574219 5.617188 C 127.78125 2.863281 116.460938 5.347656 106.894531 7.828125 C 72.246094 16.21875 39.402344 31.648438 10.796875 52.851562 C 5.699219 56.148438 2.859375 63.726562 3.804688 69.273438 C 3.714844 69.367188 4.121094 74.148438 4.121094 74.148438 Z M 4.121094 74.148438 " fill-opacity="1" fill-rule="nonzero"/><g clip-path="url(#50b63dc25d)"><path fill="#d3f2ee" d="M 206.917969 192.800781 C 187.695312 216.53125 163.558594 236.203125 136.355469 250.144531 C 133.46875 251.722656 130.128906 253.210938 126.789062 253.078125 C 123.453125 253.210938 120.113281 251.722656 117.226562 250.144531 C 90.019531 236.203125 65.929688 216.488281 46.664062 192.800781 C 24.648438 165.507812 9.082031 132.84375 0.464844 97.878906 C 5.65625 168.753906 52.621094 236.65625 118.082031 265.753906 C 131.390625 270.492188 143.84375 262.191406 154.851562 255.601562 C 178.582031 241.257812 199.472656 221.945312 215.625 199.433594 C 237.144531 169.433594 250.273438 133.835938 253.113281 97.878906 C 244.496094 132.84375 228.933594 165.507812 206.917969 192.800781 Z M 206.917969 192.800781 " fill-opacity="1" fill-rule="nonzero"/></g><g clip-path="url(#b6c986c017)"><path fill="#d3f2ee" d="M 65.941406 191.535156 C 65.773438 191.535156 65.605469 191.46875 65.476562 191.339844 C 65.21875 191.082031 65.21875 190.667969 65.476562 190.410156 L 106.1875 149.699219 L 113.492188 149.699219 L 125.464844 137.730469 L 133.3125 137.730469 L 156.324219 114.71875 C 156.582031 114.460938 156.996094 114.460938 157.253906 114.71875 C 157.511719 114.976562 157.511719 115.390625 157.253906 115.648438 L 133.863281 139.039062 L 126.011719 139.039062 L 114.042969 151.011719 L 106.730469 151.011719 L 66.40625 191.339844 C 66.277344 191.46875 66.109375 191.535156 65.941406 191.535156 Z M 65.941406 191.535156 " fill-opacity="1" fill-rule="nonzero"/></g><g clip-path="url(#39a1dd2c57)"><path fill="#d3f2ee" d="M 65.941406 181.230469 C 65.773438 181.230469 65.605469 181.167969 65.476562 181.035156 C 65.21875 180.777344 65.21875 180.363281 65.476562 180.105469 L 104.734375 140.847656 L 104.734375 133.613281 L 124.824219 113.523438 C 125.082031 113.265625 125.496094 113.265625 125.753906 113.523438 C 126.011719 113.78125 126.011719 114.195312 125.753906 114.453125 L 106.050781 134.15625 L 106.050781 141.390625 L 105.859375 141.585938 L 66.40625 181.035156 C 66.277344 181.167969 66.109375 181.230469 65.941406 181.230469 Z M 65.941406 181.230469 " fill-opacity="1" fill-rule="nonzero"/></g><path fill="#d3f2ee" d="M 130.8125 127.792969 C 130.644531 127.792969 130.476562 127.730469 130.347656 127.601562 C 130.089844 127.339844 130.089844 126.929688 130.347656 126.667969 L 157.15625 99.859375 C 157.414062 99.601562 157.828125 99.601562 158.085938 99.859375 C 158.34375 100.117188 158.34375 100.53125 158.085938 100.789062 L 131.277344 127.601562 C 131.148438 127.730469 130.980469 127.792969 130.8125 127.792969 Z M 130.8125 127.792969 " fill-opacity="1" fill-rule="nonzero"/><g clip-path="url(#b3c997300c)"><path fill="#d3f2ee" d="M 78.046875 191.535156 C 77.878906 191.535156 77.710938 191.46875 77.582031 191.339844 C 77.324219 191.082031 77.324219 190.667969 77.582031 190.410156 L 95.871094 172.121094 L 113.492188 172.121094 L 139.390625 146.222656 C 139.648438 145.964844 140.0625 145.964844 140.320312 146.222656 C 140.582031 146.484375 140.582031 146.894531 140.320312 147.15625 L 114.035156 173.441406 L 96.414062 173.441406 L 78.511719 191.339844 C 78.382812 191.46875 78.214844 191.535156 78.046875 191.535156 Z M 78.046875 191.535156 " fill-opacity="1" fill-rule="nonzero"/></g><g clip-path="url(#56969c4132)"><path fill="#d3f2ee" d="M 65.941406 163.421875 C 65.773438 163.421875 65.605469 163.355469 65.476562 163.226562 C 65.21875 162.96875 65.21875 162.554688 65.476562 162.296875 L 102.769531 125.003906 L 102.769531 119.828125 L 128.628906 93.96875 L 139.746094 93.96875 L 154.707031 79.007812 C 154.964844 78.75 155.378906 78.75 155.636719 79.007812 C 155.898438 79.265625 155.898438 79.679688 155.636719 79.9375 L 140.296875 95.28125 L 129.179688 95.28125 L 104.085938 120.378906 L 104.085938 125.550781 L 103.894531 125.746094 L 66.40625 163.226562 C 66.277344 163.355469 66.109375 163.421875 65.941406 163.421875 Z M 65.941406 163.421875 " fill-opacity="1" fill-rule="nonzero"/></g><g clip-path="url(#09a9fb3ad8)"><path fill="#d3f2ee" d="M 111.363281 191.535156 C 111.195312 191.535156 111.027344 191.46875 110.898438 191.339844 C 110.636719 191.082031 110.636719 190.667969 110.898438 190.410156 L 144.457031 156.851562 L 153.808594 156.851562 L 182.5625 128.097656 C 182.824219 127.839844 183.234375 127.839844 183.496094 128.097656 C 183.753906 128.355469 183.753906 128.769531 183.496094 129.027344 L 154.359375 158.164062 L 145 158.164062 L 111.828125 191.339844 C 111.699219 191.46875 111.53125 191.535156 111.363281 191.535156 Z M 111.363281 191.535156 " fill-opacity="1" fill-rule="nonzero"/></g><g clip-path="url(#2789384eb2)"><path fill="#d3f2ee" d="M 65.941406 133.15625 C 65.773438 133.15625 65.605469 133.089844 65.476562 132.960938 C 65.21875 132.703125 65.21875 132.289062 65.476562 132.03125 L 84.964844 112.542969 L 93.945312 112.542969 L 120.960938 85.527344 C 121.21875 85.269531 121.632812 85.269531 121.890625 85.527344 C 122.148438 85.785156 122.148438 86.199219 121.890625 86.457031 L 94.488281 113.859375 L 85.507812 113.859375 L 66.40625 132.960938 C 66.277344 133.089844 66.109375 133.15625 65.941406 133.15625 Z M 65.941406 133.15625 " fill-opacity="1" fill-rule="nonzero"/></g><g clip-path="url(#82233b0b39)"><path fill="#d3f2ee" d="M 129.03125 188.285156 C 128.863281 188.285156 128.695312 188.21875 128.566406 188.089844 C 128.304688 187.832031 128.304688 187.417969 128.566406 187.160156 L 143.964844 171.761719 L 158.253906 171.761719 L 178.457031 151.558594 L 183.6875 151.558594 L 197.816406 137.433594 C 198.074219 137.171875 198.488281 137.171875 198.746094 137.433594 C 199.003906 137.691406 199.003906 138.105469 198.746094 138.363281 L 184.230469 152.878906 L 178.996094 152.878906 L 158.796875 173.078125 L 144.507812 173.078125 L 129.496094 188.089844 C 129.371094 188.21875 129.203125 188.285156 129.03125 188.285156 Z M 129.03125 188.285156 " fill-opacity="1" fill-rule="nonzero"/></g><path fill="#d3f2ee" d="M 94.21875 100.976562 C 94.050781 100.976562 93.882812 100.914062 93.75 100.785156 C 93.492188 100.527344 93.492188 100.113281 93.75 99.855469 L 122.613281 70.992188 C 122.875 70.734375 123.285156 70.734375 123.546875 70.992188 C 123.804688 71.25 123.804688 71.664062 123.546875 71.921875 L 94.683594 100.789062 C 94.554688 100.921875 94.386719 100.976562 94.21875 100.976562 Z M 94.21875 100.976562 " fill-opacity="1" fill-rule="nonzero"/><path fill="#d3f2ee" d="M 127.5625 115.863281 C 125.414062 115.863281 123.660156 114.113281 123.660156 111.960938 C 123.660156 109.808594 125.414062 108.058594 127.5625 108.058594 C 129.714844 108.058594 131.464844 109.808594 131.464844 111.960938 C 131.472656 114.113281 129.714844 115.863281 127.5625 115.863281 Z M 127.5625 109.371094 C 126.136719 109.371094 124.972656 110.53125 124.972656 111.960938 C 124.972656 113.386719 126.136719 114.550781 127.5625 114.550781 C 128.992188 114.550781 130.152344 113.386719 130.152344 111.960938 C 130.152344 110.53125 128.992188 109.371094 127.5625 109.371094 Z M 127.5625 109.371094 " fill-opacity="1" fill-rule="nonzero"/><g clip-path="url(#46b0918338)"><path fill="#d3f2ee" d="M 125.289062 73.195312 C 123.136719 73.195312 121.386719 71.441406 121.386719 69.292969 C 121.386719 67.140625 123.136719 65.390625 125.289062 65.390625 C 127.441406 65.390625 129.191406 67.140625 129.191406 69.292969 C 129.191406 71.441406 127.441406 73.195312 125.289062 73.195312 Z M 125.289062 66.703125 C 123.863281 66.703125 122.699219 67.863281 122.699219 69.292969 C 122.699219 70.71875 123.863281 71.882812 125.289062 71.882812 C 126.71875 71.882812 127.878906 70.71875 127.878906 69.292969 C 127.878906 67.863281 126.71875 66.703125 125.289062 66.703125 Z M 125.289062 66.703125 " fill-opacity="1" fill-rule="nonzero"/></g><path fill="#d3f2ee" d="M 160.871094 113.988281 C 160.871094 114.417969 160.789062 114.835938 160.625 115.230469 C 160.457031 115.628906 160.222656 115.980469 159.917969 116.285156 C 159.613281 116.589844 159.261719 116.824219 158.867188 116.992188 C 158.46875 117.15625 158.054688 117.238281 157.621094 117.238281 C 157.191406 117.238281 156.777344 117.15625 156.378906 116.992188 C 155.980469 116.824219 155.628906 116.589844 155.324219 116.285156 C 155.019531 115.980469 154.785156 115.628906 154.621094 115.230469 C 154.453125 114.835938 154.371094 114.417969 154.371094 113.988281 C 154.371094 113.558594 154.453125 113.144531 154.621094 112.746094 C 154.785156 112.347656 155.019531 111.996094 155.324219 111.691406 C 155.628906 111.386719 155.980469 111.152344 156.378906 110.988281 C 156.777344 110.820312 157.191406 110.738281 157.621094 110.738281 C 158.054688 110.738281 158.46875 110.820312 158.867188 110.988281 C 159.261719 111.152344 159.613281 111.386719 159.917969 111.691406 C 160.222656 111.996094 160.457031 112.347656 160.625 112.746094 C 160.789062 113.144531 160.871094 113.558594 160.871094 113.988281 Z M 160.871094 113.988281 " fill-opacity="1" fill-rule="nonzero"/><path fill="#d3f2ee" d="M 158.421875 79.472656 C 158.421875 79.902344 158.339844 80.316406 158.175781 80.714844 C 158.011719 81.113281 157.777344 81.464844 157.472656 81.769531 C 157.167969 82.074219 156.816406 82.308594 156.417969 82.476562 C 156.019531 82.640625 155.605469 82.722656 155.171875 82.722656 C 154.742188 82.722656 154.328125 82.640625 153.929688 82.476562 C 153.53125 82.308594 153.179688 82.074219 152.875 81.769531 C 152.570312 81.464844 152.335938 81.113281 152.171875 80.714844 C 152.007812 80.316406 151.925781 79.902344 151.925781 79.472656 C 151.925781 79.042969 152.007812 78.628906 152.171875 78.230469 C 152.335938 77.832031 152.570312 77.480469 152.875 77.175781 C 153.179688 76.871094 153.53125 76.636719 153.929688 76.472656 C 154.328125 76.304688 154.742188 76.222656 155.171875 76.222656 C 155.605469 76.222656 156.019531 76.304688 156.417969 76.472656 C 156.816406 76.636719 157.167969 76.871094 157.472656 77.175781 C 157.777344 77.480469 158.011719 77.832031 158.175781 78.230469 C 158.339844 78.628906 158.421875 79.042969 158.421875 79.472656 Z M 158.421875 79.472656 " fill-opacity="1" fill-rule="nonzero"/><path fill="#d3f2ee" d="M 143.105469 146.6875 C 143.105469 147.121094 143.023438 147.535156 142.859375 147.933594 C 142.695312 148.332031 142.460938 148.683594 142.15625 148.988281 C 141.851562 149.292969 141.5 149.527344 141.101562 149.691406 C 140.703125 149.855469 140.289062 149.9375 139.855469 149.9375 C 139.425781 149.9375 139.011719 149.855469 138.613281 149.691406 C 138.214844 149.527344 137.863281 149.292969 137.558594 148.988281 C 137.253906 148.683594 137.019531 148.332031 136.855469 147.933594 C 136.691406 147.535156 136.609375 147.121094 136.609375 146.6875 C 136.609375 146.257812 136.691406 145.84375 136.855469 145.445312 C 137.019531 145.046875 137.253906 144.695312 137.558594 144.390625 C 137.863281 144.085938 138.214844 143.851562 138.613281 143.6875 C 139.011719 143.523438 139.425781 143.441406 139.855469 143.441406 C 140.289062 143.441406 140.703125 143.523438 141.101562 143.6875 C 141.5 143.851562 141.851562 144.085938 142.15625 144.390625 C 142.460938 144.695312 142.695312 145.046875 142.859375 145.445312 C 143.023438 145.84375 143.105469 146.257812 143.105469 146.6875 Z M 143.105469 146.6875 " fill-opacity="1" fill-rule="nonzero"/></g></g><g transform="matrix(1, 0, 0, 1, 339, 106)"><g clip-path="url(#e08e2e64c2)"><g fill="#eefffd" fill-opacity="1"><g transform="translate(0.291831, 83.560481)"><g><path d="M 16.265625 -54.828125 L 16.265625 -20.890625 C 16.265625 -17.171875 17.234375 -14.328125 19.171875 -12.359375 C 21.109375 -10.398438 23.828125 -9.421875 27.328125 -9.421875 C 30.890625 -9.421875 33.640625 -10.398438 35.578125 -12.359375 C 37.515625 -14.328125 38.484375 -17.171875 38.484375 -20.890625 L 38.484375 -54.828125 L 49.5625 -54.828125 L 49.5625 -20.96875 C 49.5625 -16.3125 48.550781 -12.367188 46.53125 -9.140625 C 44.519531 -5.921875 41.820312 -3.5 38.4375 -1.875 C 35.0625 -0.257812 31.304688 0.546875 27.171875 0.546875 C 23.085938 0.546875 19.382812 -0.257812 16.0625 -1.875 C 12.738281 -3.5 10.109375 -5.921875 8.171875 -9.140625 C 6.234375 -12.367188 5.265625 -16.3125 5.265625 -20.96875 L 5.265625 -54.828125 Z M 16.265625 -54.828125 "/></g></g></g><g fill="#eefffd" fill-opacity="1"><g transform="translate(55.039503, 83.560481)"><g><path d="M 38.25 0 L 26.390625 -18.453125 L 15.625 0 L 3.21875 0 L 20.5 -27.65625 L 2.984375 -54.828125 L 15.625 -54.828125 L 27.484375 -36.453125 L 38.171875 -54.828125 L 50.578125 -54.828125 L 33.375 -27.25 L 50.890625 0 Z M 38.25 0 "/></g></g></g><g fill="#eefffd" fill-opacity="1"><g transform="translate(108.923151, 83.560481)"><g><path d="M 16.265625 -54.828125 L 16.265625 -20.890625 C 16.265625 -17.171875 17.234375 -14.328125 19.171875 -12.359375 C 21.109375 -10.398438 23.828125 -9.421875 27.328125 -9.421875 C 30.890625 -9.421875 33.640625 -10.398438 35.578125 -12.359375 C 37.515625 -14.328125 38.484375 -17.171875 38.484375 -20.890625 L 38.484375 -54.828125 L 49.5625 -54.828125 L 49.5625 -20.96875 C 49.5625 -16.3125 48.550781 -12.367188 46.53125 -9.140625 C 44.519531 -5.921875 41.820312 -3.5 38.4375 -1.875 C 35.0625 -0.257812 31.304688 0.546875 27.171875 0.546875 C 23.085938 0.546875 19.382812 -0.257812 16.0625 -1.875 C 12.738281 -3.5 10.109375 -5.921875 8.171875 -9.140625 C 6.234375 -12.367188 5.265625 -16.3125 5.265625 -20.96875 L 5.265625 -54.828125 Z M 16.265625 -54.828125 "/></g></g></g><g fill="#eefffd" fill-opacity="1"><g transform="translate(163.670824, 83.560481)"><g><path d="M 16.421875 -54.828125 L 16.421875 0 L 5.421875 0 L 5.421875 -54.828125 Z M 16.421875 -54.828125 "/></g></g></g></g></g><g fill="#e0f7f4" fill-opacity="1"><g transform="translate(401.689536, 253.274805)"><g><path d="M 7.203125 0.125 C 5.992188 0.125 4.84375 -0.0820312 3.75 -0.5 C 2.664062 -0.914062 1.816406 -1.457031 1.203125 -2.125 L 1.75 -3.015625 C 2.320312 -2.398438 3.097656 -1.898438 4.078125 -1.515625 C 5.066406 -1.128906 6.101562 -0.9375 7.1875 -0.9375 C 8.757812 -0.9375 9.945312 -1.234375 10.75 -1.828125 C 11.550781 -2.429688 11.953125 -3.210938 11.953125 -4.171875 C 11.953125 -4.910156 11.738281 -5.5 11.3125 -5.9375 C 10.882812 -6.375 10.351562 -6.707031 9.71875 -6.9375 C 9.09375 -7.175781 8.25 -7.425781 7.1875 -7.6875 C 5.976562 -7.976562 5.007812 -8.265625 4.28125 -8.546875 C 3.550781 -8.835938 2.929688 -9.273438 2.421875 -9.859375 C 1.910156 -10.453125 1.65625 -11.242188 1.65625 -12.234375 C 1.65625 -13.035156 1.863281 -13.769531 2.28125 -14.4375 C 2.707031 -15.101562 3.351562 -15.628906 4.21875 -16.015625 C 5.09375 -16.410156 6.1875 -16.609375 7.5 -16.609375 C 8.40625 -16.609375 9.296875 -16.472656 10.171875 -16.203125 C 11.054688 -15.941406 11.820312 -15.582031 12.46875 -15.125 L 12.015625 -14.15625 C 11.359375 -14.613281 10.628906 -14.957031 9.828125 -15.1875 C 9.035156 -15.425781 8.257812 -15.546875 7.5 -15.546875 C 5.96875 -15.546875 4.804688 -15.238281 4.015625 -14.625 C 3.234375 -14.019531 2.84375 -13.226562 2.84375 -12.25 C 2.84375 -11.507812 3.054688 -10.921875 3.484375 -10.484375 C 3.910156 -10.046875 4.4375 -9.707031 5.0625 -9.46875 C 5.695312 -9.238281 6.554688 -8.988281 7.640625 -8.71875 C 8.847656 -8.414062 9.8125 -8.125 10.53125 -7.84375 C 11.25 -7.5625 11.863281 -7.132812 12.375 -6.5625 C 12.882812 -5.988281 13.140625 -5.210938 13.140625 -4.234375 C 13.140625 -3.441406 12.925781 -2.710938 12.5 -2.046875 C 12.070312 -1.390625 11.410156 -0.863281 10.515625 -0.46875 C 9.617188 -0.0703125 8.515625 0.125 7.203125 0.125 Z M 7.203125 0.125 "/></g></g></g><g fill="#e0f7f4" fill-opacity="1"><g transform="translate(416.507141, 253.274805)"><g><path d="M 2.359375 0.09375 C 2.085938 0.09375 1.851562 -0.00390625 1.65625 -0.203125 C 1.457031 -0.398438 1.359375 -0.640625 1.359375 -0.921875 C 1.359375 -1.203125 1.457031 -1.4375 1.65625 -1.625 C 1.851562 -1.8125 2.085938 -1.90625 2.359375 -1.90625 C 2.617188 -1.90625 2.847656 -1.8125 3.046875 -1.625 C 3.242188 -1.4375 3.34375 -1.203125 3.34375 -0.921875 C 3.34375 -0.640625 3.242188 -0.398438 3.046875 -0.203125 C 2.847656 -0.00390625 2.617188 0.09375 2.359375 0.09375 Z M 2.359375 0.09375 "/></g></g></g><g fill="#e0f7f4" fill-opacity="1"><g transform="translate(420.74723, 253.274805)"><g><path d="M 9.84375 0.125 C 8.226562 0.125 6.769531 -0.234375 5.46875 -0.953125 C 4.175781 -1.679688 3.15625 -2.679688 2.40625 -3.953125 C 1.664062 -5.222656 1.296875 -6.65625 1.296875 -8.25 C 1.296875 -9.832031 1.664062 -11.257812 2.40625 -12.53125 C 3.15625 -13.800781 4.175781 -14.796875 5.46875 -15.515625 C 6.769531 -16.242188 8.226562 -16.609375 9.84375 -16.609375 C 11.039062 -16.609375 12.140625 -16.414062 13.140625 -16.03125 C 14.148438 -15.644531 15.007812 -15.078125 15.71875 -14.328125 L 14.96875 -13.546875 C 13.644531 -14.847656 11.953125 -15.5 9.890625 -15.5 C 8.515625 -15.5 7.257812 -15.1875 6.125 -14.5625 C 5 -13.9375 4.113281 -13.066406 3.46875 -11.953125 C 2.820312 -10.847656 2.5 -9.613281 2.5 -8.25 C 2.5 -6.882812 2.820312 -5.644531 3.46875 -4.53125 C 4.113281 -3.425781 5 -2.554688 6.125 -1.921875 C 7.257812 -1.296875 8.515625 -0.984375 9.890625 -0.984375 C 11.929688 -0.984375 13.625 -1.644531 14.96875 -2.96875 L 15.71875 -2.1875 C 15.007812 -1.4375 14.144531 -0.863281 13.125 -0.46875 C 12.113281 -0.0703125 11.019531 0.125 9.84375 0.125 Z M 9.84375 0.125 "/></g></g></g><g fill="#e0f7f4" fill-opacity="1"><g transform="translate(437.94404, 253.274805)"><g><path d="M 2.359375 0.09375 C 2.085938 0.09375 1.851562 -0.00390625 1.65625 -0.203125 C 1.457031 -0.398438 1.359375 -0.640625 1.359375 -0.921875 C 1.359375 -1.203125 1.457031 -1.4375 1.65625 -1.625 C 1.851562 -1.8125 2.085938 -1.90625 2.359375 -1.90625 C 2.617188 -1.90625 2.847656 -1.8125 3.046875 -1.625 C 3.242188 -1.4375 3.34375 -1.203125 3.34375 -0.921875 C 3.34375 -0.640625 3.242188 -0.398438 3.046875 -0.203125 C 2.847656 -0.00390625 2.617188 0.09375 2.359375 0.09375 Z M 2.359375 0.09375 "/></g></g></g><g fill="#e0f7f4" fill-opacity="1"><g transform="translate(442.655459, 253.274805)"><g><path d="M 2.875 -16.5 L 9.40625 -16.5 C 11.113281 -16.5 12.628906 -16.144531 13.953125 -15.4375 C 15.285156 -14.726562 16.320312 -13.75 17.0625 -12.5 C 17.800781 -11.25 18.171875 -9.832031 18.171875 -8.25 C 18.171875 -6.65625 17.800781 -5.234375 17.0625 -3.984375 C 16.320312 -2.742188 15.285156 -1.769531 13.953125 -1.0625 C 12.628906 -0.351562 11.113281 0 9.40625 0 L 2.875 0 Z M 9.3125 -1.078125 C 10.832031 -1.078125 12.171875 -1.378906 13.328125 -1.984375 C 14.492188 -2.585938 15.390625 -3.429688 16.015625 -4.515625 C 16.648438 -5.609375 16.96875 -6.851562 16.96875 -8.25 C 16.96875 -9.644531 16.648438 -10.882812 16.015625 -11.96875 C 15.390625 -13.050781 14.492188 -13.894531 13.328125 -14.5 C 12.171875 -15.101562 10.832031 -15.40625 9.3125 -15.40625 L 4.078125 -15.40625 L 4.078125 -1.078125 Z M 9.3125 -1.078125 "/></g></g></g></svg>