<svg xmlns="http://www.w3.org/2000/svg" xmlns:xlink="http://www.w3.org/1999/xlink" width="500" zoomAndPan="magnify" viewBox="0 0 375 374.999991" height="500" preserveAspectRatio="xMidYMid meet" version="1.0"><defs><filter x="0%" y="0%" width="100%" height="100%" id="8b55ec5f39"><feColorMatrix values="0 0 0 0 1 0 0 0 0 1 0 0 0 0 1 0 0 0 1 0" color-interpolation-filters="sRGB"/></filter><g/><mask id="72b6304fe7"><g filter="url(#8b55ec5f39)"><rect x="-37.5" width="450" fill="#000000" y="-37.499999" height="449.999989" fill-opacity="0.95"/></g></mask><clipPath id="54dd429e31"><path d="M 0 0 L 375 0 L 375 375 L 0 375 Z M 0 0 " clip-rule="nonzero"/></clipPath><clipPath id="3f9aa33f45"><rect x="0" width="375" y="0" height="375"/></clipPath><clipPath id="f63546f40c"><rect x="0" width="375" y="0" height="375"/></clipPath><clipPath id="5d2c20524f"><path d="M 74.25 115 L 300.75 115 L 300.75 268 L 74.25 268 Z M 74.25 115 " clip-rule="nonzero"/></clipPath><clipPath id="9516be6f4e"><path d="M 132.273438 130 L 215 130 L 215 199.984375 L 132.273438 199.984375 Z M 132.273438 130 " clip-rule="nonzero"/></clipPath><clipPath id="a8f6882692"><path d="M 132.273438 129 L 187 129 L 187 191 L 132.273438 191 Z M 132.273438 129 " clip-rule="nonzero"/></clipPath><clipPath id="3e636ee5ca"><path d="M 143 159 L 200 159 L 200 199.984375 L 143 199.984375 Z M 143 159 " clip-rule="nonzero"/></clipPath><clipPath id="a682708b7f"><path d="M 132.273438 98 L 214 98 L 214 175 L 132.273438 175 Z M 132.273438 98 " clip-rule="nonzero"/></clipPath><clipPath id="564ea6efda"><path d="M 173 142 L 239 142 L 239 199.984375 L 173 199.984375 Z M 173 142 " clip-rule="nonzero"/></clipPath><clipPath id="e062695e12"><path d="M 132.273438 104 L 184 104 L 184 148 L 132.273438 148 Z M 132.273438 104 " clip-rule="nonzero"/></clipPath><clipPath id="fe6b929481"><path d="M 188 151 L 252.273438 151 L 252.273438 197 L 188 197 Z M 188 151 " clip-rule="nonzero"/></clipPath><clipPath id="ee140e787e"><path d="M 182 86.734375 L 190 86.734375 L 190 94 L 182 94 Z M 182 86.734375 " clip-rule="nonzero"/></clipPath></defs><g mask="url(#72b6304fe7)"><g transform="matrix(1, 0, 0, 1, 0, 0)"><g clip-path="url(#f63546f40c)"><g transform="matrix(1, 0, 0, 1, 0, 0)"><g clip-path="url(#3f9aa33f45)"><g clip-path="url(#54dd429e31)"><rect x="-136.5" width="648" fill="#011512" y="-136.499997" height="647.999984" fill-opacity="1"/></g></g></g></g></g></g><path fill="#d3f2ee" d="M 77.527344 94.585938 C 81.449219 143.121094 104.421875 189.839844 139.691406 221.953125 C 107.253906 184.296875 87.394531 135.882812 87.679688 87.105469 C 88.082031 85.566406 89.296875 84.515625 90.589844 83.707031 C 119.265625 64.253906 153.363281 49.246094 187.621094 44.636719 C 208.207031 46.777344 230.007812 54.464844 249.058594 63.160156 C 261.757812 69.023438 273.933594 76.101562 285.339844 84.234375 C 288.535156 86.539062 287.363281 89.289062 287.402344 93.898438 C 285.378906 140.574219 266.53125 185.835938 235.347656 221.953125 C 268.515625 191.660156 290.921875 148.746094 296.625 103.121094 C 297.230469 99.035156 297.554688 94.425781 297.917969 90.257812 C 298.726562 85.285156 296.300781 78.488281 291.730469 75.496094 C 263.945312 54.421875 231.382812 39.902344 197.167969 33.148438 C 188.390625 30.679688 178.238281 32.90625 169.664062 35.128906 C 138.601562 42.652344 109.15625 56.488281 83.511719 75.496094 C 78.941406 78.449219 76.394531 85.242188 77.242188 90.21875 C 77.164062 90.300781 77.527344 94.585938 77.527344 94.585938 Z M 77.527344 94.585938 " fill-opacity="1" fill-rule="nonzero"/><g clip-path="url(#5d2c20524f)"><path fill="#d3f2ee" d="M 259.332031 200.960938 C 242.101562 222.234375 220.464844 239.871094 196.074219 252.367188 C 193.484375 253.785156 190.492188 255.117188 187.5 254.996094 C 184.507812 255.117188 181.515625 253.785156 178.925781 252.367188 C 154.535156 239.871094 132.9375 222.195312 115.667969 200.960938 C 95.929688 176.492188 81.976562 147.207031 74.25 115.863281 C 78.902344 179.402344 121.007812 240.273438 179.695312 266.363281 C 191.625 270.609375 202.789062 263.167969 212.65625 257.261719 C 233.933594 244.402344 252.660156 227.089844 267.140625 206.90625 C 286.433594 180.007812 298.203125 148.097656 300.75 115.863281 C 293.023438 147.207031 279.070312 176.492188 259.332031 200.960938 Z M 259.332031 200.960938 " fill-opacity="1" fill-rule="nonzero"/></g><g clip-path="url(#9516be6f4e)"><path fill="#d3f2ee" d="M 132.949219 199.832031 C 132.796875 199.832031 132.644531 199.773438 132.53125 199.65625 C 132.300781 199.425781 132.300781 199.054688 132.53125 198.824219 L 169.03125 162.324219 L 175.582031 162.324219 L 186.3125 151.589844 L 193.351562 151.589844 L 213.980469 130.960938 C 214.214844 130.730469 214.582031 130.730469 214.816406 130.960938 C 215.046875 131.191406 215.046875 131.5625 214.816406 131.792969 L 193.84375 152.765625 L 186.804688 152.765625 L 176.074219 163.5 L 169.515625 163.5 L 133.363281 199.65625 C 133.25 199.773438 133.097656 199.832031 132.949219 199.832031 Z M 132.949219 199.832031 " fill-opacity="1" fill-rule="nonzero"/></g><g clip-path="url(#a8f6882692)"><path fill="#d3f2ee" d="M 132.949219 190.59375 C 132.796875 190.59375 132.644531 190.535156 132.53125 190.417969 C 132.300781 190.1875 132.300781 189.816406 132.53125 189.585938 L 167.726562 154.386719 L 167.726562 147.902344 L 185.742188 129.890625 C 185.972656 129.65625 186.34375 129.65625 186.574219 129.890625 C 186.804688 130.121094 186.804688 130.492188 186.574219 130.722656 L 168.910156 148.386719 L 168.910156 154.875 L 168.734375 155.050781 L 133.363281 190.417969 C 133.25 190.535156 133.097656 190.59375 132.949219 190.59375 Z M 132.949219 190.59375 " fill-opacity="1" fill-rule="nonzero"/></g><path fill="#d3f2ee" d="M 191.109375 142.683594 C 190.957031 142.683594 190.808594 142.625 190.691406 142.507812 C 190.460938 142.277344 190.460938 141.90625 190.691406 141.675781 L 214.730469 117.640625 C 214.960938 117.40625 215.332031 117.40625 215.5625 117.640625 C 215.792969 117.871094 215.792969 118.242188 215.5625 118.472656 L 191.527344 142.507812 C 191.410156 142.625 191.261719 142.683594 191.109375 142.683594 Z M 191.109375 142.683594 " fill-opacity="1" fill-rule="nonzero"/><g clip-path="url(#3e636ee5ca)"><path fill="#d3f2ee" d="M 143.800781 199.832031 C 143.652344 199.832031 143.5 199.773438 143.382812 199.65625 C 143.152344 199.425781 143.152344 199.054688 143.382812 198.824219 L 159.78125 182.425781 L 175.582031 182.425781 L 198.800781 159.207031 C 199.03125 158.976562 199.402344 158.976562 199.636719 159.207031 C 199.867188 159.4375 199.867188 159.808594 199.636719 160.042969 L 176.066406 183.609375 L 160.269531 183.609375 L 144.21875 199.65625 C 144.101562 199.773438 143.953125 199.832031 143.800781 199.832031 Z M 143.800781 199.832031 " fill-opacity="1" fill-rule="nonzero"/></g><g clip-path="url(#a682708b7f)"><path fill="#d3f2ee" d="M 132.949219 174.625 C 132.796875 174.625 132.644531 174.566406 132.53125 174.453125 C 132.300781 174.21875 132.300781 173.847656 132.53125 173.617188 L 165.96875 140.179688 L 165.96875 135.542969 L 189.152344 112.355469 L 199.121094 112.355469 L 212.535156 98.941406 C 212.765625 98.710938 213.136719 98.710938 213.367188 98.941406 C 213.597656 99.175781 213.597656 99.546875 213.367188 99.777344 L 199.613281 113.53125 L 189.644531 113.53125 L 167.148438 136.035156 L 167.148438 140.671875 L 166.976562 140.847656 L 133.363281 174.453125 C 133.25 174.566406 133.097656 174.625 132.949219 174.625 Z M 132.949219 174.625 " fill-opacity="1" fill-rule="nonzero"/></g><g clip-path="url(#564ea6efda)"><path fill="#d3f2ee" d="M 173.671875 199.832031 C 173.519531 199.832031 173.367188 199.773438 173.253906 199.65625 C 173.019531 199.425781 173.019531 199.054688 173.253906 198.824219 L 203.34375 168.734375 L 211.726562 168.734375 L 237.507812 142.957031 C 237.738281 142.722656 238.109375 142.722656 238.34375 142.957031 C 238.574219 143.1875 238.574219 143.558594 238.34375 143.789062 L 212.222656 169.910156 L 203.828125 169.910156 L 174.085938 199.65625 C 173.972656 199.773438 173.820312 199.832031 173.671875 199.832031 Z M 173.671875 199.832031 " fill-opacity="1" fill-rule="nonzero"/></g><g clip-path="url(#e062695e12)"><path fill="#d3f2ee" d="M 132.949219 147.492188 C 132.796875 147.492188 132.644531 147.433594 132.53125 147.316406 C 132.300781 147.085938 132.300781 146.714844 132.53125 146.484375 L 150.003906 129.007812 L 158.054688 129.007812 L 182.277344 104.785156 C 182.507812 104.554688 182.878906 104.554688 183.109375 104.785156 C 183.34375 105.019531 183.34375 105.390625 183.109375 105.621094 L 158.542969 130.191406 L 150.492188 130.191406 L 133.363281 147.316406 C 133.25 147.433594 133.097656 147.492188 132.949219 147.492188 Z M 132.949219 147.492188 " fill-opacity="1" fill-rule="nonzero"/></g><g clip-path="url(#fe6b929481)"><path fill="#d3f2ee" d="M 189.511719 196.917969 C 189.359375 196.917969 189.210938 196.859375 189.09375 196.746094 C 188.863281 196.511719 188.863281 196.140625 189.09375 195.910156 L 202.902344 182.101562 L 215.714844 182.101562 L 233.824219 163.992188 L 238.515625 163.992188 L 251.183594 151.324219 C 251.414062 151.09375 251.785156 151.09375 252.015625 151.324219 C 252.25 151.554688 252.25 151.925781 252.015625 152.160156 L 239.003906 165.171875 L 234.3125 165.171875 L 216.199219 183.285156 L 203.386719 183.285156 L 189.929688 196.746094 C 189.816406 196.859375 189.667969 196.917969 189.511719 196.917969 Z M 189.511719 196.917969 " fill-opacity="1" fill-rule="nonzero"/></g><path fill="#d3f2ee" d="M 158.296875 118.640625 C 158.148438 118.640625 157.996094 118.582031 157.882812 118.46875 C 157.648438 118.234375 157.648438 117.863281 157.882812 117.632812 L 183.757812 91.753906 C 183.992188 91.523438 184.363281 91.523438 184.59375 91.753906 C 184.824219 91.988281 184.824219 92.359375 184.59375 92.589844 L 158.714844 118.472656 C 158.601562 118.589844 158.449219 118.640625 158.296875 118.640625 Z M 158.296875 118.640625 " fill-opacity="1" fill-rule="nonzero"/><path fill="#d3f2ee" d="M 188.195312 131.984375 C 186.265625 131.984375 184.699219 130.417969 184.699219 128.488281 C 184.699219 126.558594 186.265625 124.988281 188.195312 124.988281 C 190.125 124.988281 191.695312 126.558594 191.695312 128.488281 C 191.699219 130.417969 190.125 131.984375 188.195312 131.984375 Z M 188.195312 126.164062 C 186.917969 126.164062 185.875 127.207031 185.875 128.488281 C 185.875 129.765625 186.917969 130.808594 188.195312 130.808594 C 189.476562 130.808594 190.519531 129.765625 190.519531 128.488281 C 190.519531 127.207031 189.476562 126.164062 188.195312 126.164062 Z M 188.195312 126.164062 " fill-opacity="1" fill-rule="nonzero"/><g clip-path="url(#ee140e787e)"><path fill="#d3f2ee" d="M 186.15625 93.730469 C 184.230469 93.730469 182.660156 92.160156 182.660156 90.230469 C 182.660156 88.304688 184.230469 86.734375 186.15625 86.734375 C 188.085938 86.734375 189.65625 88.304688 189.65625 90.230469 C 189.65625 92.160156 188.085938 93.730469 186.15625 93.730469 Z M 186.15625 87.910156 C 184.878906 87.910156 183.835938 88.953125 183.835938 90.230469 C 183.835938 91.511719 184.878906 92.554688 186.15625 92.554688 C 187.4375 92.554688 188.480469 91.511719 188.480469 90.230469 C 188.480469 88.953125 187.4375 87.910156 186.15625 87.910156 Z M 186.15625 87.910156 " fill-opacity="1" fill-rule="nonzero"/></g><path fill="#d3f2ee" d="M 218.058594 130.304688 C 218.058594 130.691406 217.984375 131.0625 217.835938 131.421875 C 217.6875 131.777344 217.480469 132.09375 217.207031 132.367188 C 216.933594 132.640625 216.617188 132.851562 216.261719 132.996094 C 215.902344 133.144531 215.53125 133.21875 215.144531 133.21875 C 214.757812 133.21875 214.386719 133.144531 214.03125 132.996094 C 213.671875 132.851562 213.359375 132.640625 213.085938 132.367188 C 212.8125 132.09375 212.601562 131.777344 212.453125 131.421875 C 212.304688 131.0625 212.230469 130.691406 212.230469 130.304688 C 212.230469 129.917969 212.304688 129.546875 212.453125 129.191406 C 212.601562 128.835938 212.8125 128.519531 213.085938 128.246094 C 213.359375 127.972656 213.671875 127.761719 214.03125 127.613281 C 214.386719 127.464844 214.757812 127.394531 215.144531 127.394531 C 215.53125 127.394531 215.902344 127.464844 216.261719 127.613281 C 216.617188 127.761719 216.933594 127.972656 217.207031 128.246094 C 217.480469 128.519531 217.6875 128.835938 217.835938 129.191406 C 217.984375 129.546875 218.058594 129.917969 218.058594 130.304688 Z M 218.058594 130.304688 " fill-opacity="1" fill-rule="nonzero"/><path fill="#d3f2ee" d="M 215.863281 99.359375 C 215.863281 99.746094 215.789062 100.117188 215.640625 100.476562 C 215.496094 100.832031 215.285156 101.148438 215.011719 101.421875 C 214.738281 101.691406 214.421875 101.902344 214.066406 102.050781 C 213.707031 102.199219 213.335938 102.273438 212.949219 102.273438 C 212.5625 102.273438 212.191406 102.199219 211.835938 102.050781 C 211.480469 101.902344 211.164062 101.691406 210.890625 101.421875 C 210.617188 101.148438 210.40625 100.832031 210.257812 100.476562 C 210.109375 100.117188 210.039062 99.746094 210.039062 99.359375 C 210.039062 98.972656 210.109375 98.601562 210.257812 98.246094 C 210.40625 97.886719 210.617188 97.574219 210.890625 97.300781 C 211.164062 97.027344 211.480469 96.816406 211.835938 96.667969 C 212.191406 96.519531 212.5625 96.445312 212.949219 96.445312 C 213.335938 96.445312 213.707031 96.519531 214.066406 96.667969 C 214.421875 96.816406 214.738281 97.027344 215.011719 97.300781 C 215.285156 97.574219 215.496094 97.886719 215.640625 98.246094 C 215.789062 98.601562 215.863281 98.972656 215.863281 99.359375 Z M 215.863281 99.359375 " fill-opacity="1" fill-rule="nonzero"/><path fill="#d3f2ee" d="M 202.132812 159.625 C 202.132812 160.011719 202.058594 160.382812 201.910156 160.738281 C 201.761719 161.097656 201.550781 161.410156 201.277344 161.683594 C 201.003906 161.957031 200.691406 162.167969 200.332031 162.316406 C 199.976562 162.464844 199.605469 162.539062 199.21875 162.539062 C 198.832031 162.539062 198.460938 162.464844 198.101562 162.316406 C 197.746094 162.167969 197.429688 161.957031 197.15625 161.683594 C 196.886719 161.410156 196.675781 161.097656 196.527344 160.738281 C 196.378906 160.382812 196.304688 160.011719 196.304688 159.625 C 196.304688 159.238281 196.378906 158.867188 196.527344 158.507812 C 196.675781 158.152344 196.886719 157.835938 197.15625 157.5625 C 197.429688 157.292969 197.746094 157.082031 198.101562 156.933594 C 198.460938 156.785156 198.832031 156.710938 199.21875 156.710938 C 199.605469 156.710938 199.976562 156.785156 200.332031 156.933594 C 200.691406 157.082031 201.003906 157.292969 201.277344 157.5625 C 201.550781 157.835938 201.761719 158.152344 201.910156 158.507812 C 202.058594 158.867188 202.132812 159.238281 202.132812 159.625 Z M 202.132812 159.625 " fill-opacity="1" fill-rule="nonzero"/><g fill="#eefffd" fill-opacity="1"><g transform="translate(140.337886, 324.548299)"><g><path d="M 8.28125 -27.921875 L 8.28125 -10.640625 C 8.28125 -8.742188 8.769531 -7.296875 9.75 -6.296875 C 10.738281 -5.296875 12.128906 -4.796875 13.921875 -4.796875 C 15.734375 -4.796875 17.128906 -5.296875 18.109375 -6.296875 C 19.097656 -7.296875 19.59375 -8.742188 19.59375 -10.640625 L 19.59375 -27.921875 L 25.234375 -27.921875 L 25.234375 -10.6875 C 25.234375 -8.3125 24.71875 -6.300781 23.6875 -4.65625 C 22.664062 -3.019531 21.296875 -1.785156 19.578125 -0.953125 C 17.859375 -0.128906 15.945312 0.28125 13.84375 0.28125 C 11.757812 0.28125 9.867188 -0.128906 8.171875 -0.953125 C 6.484375 -1.785156 5.144531 -3.019531 4.15625 -4.65625 C 3.175781 -6.300781 2.6875 -8.3125 2.6875 -10.6875 L 2.6875 -27.921875 Z M 8.28125 -27.921875 "/></g></g></g><g fill="#eefffd" fill-opacity="1"><g transform="translate(168.215119, 324.548299)"><g><path d="M 19.484375 0 L 13.4375 -9.40625 L 7.953125 0 L 1.640625 0 L 10.4375 -14.078125 L 1.515625 -27.921875 L 7.953125 -27.921875 L 14 -18.5625 L 19.4375 -27.921875 L 25.765625 -27.921875 L 17 -13.875 L 25.921875 0 Z M 19.484375 0 "/></g></g></g><g fill="#eefffd" fill-opacity="1"><g transform="translate(195.652396, 324.548299)"><g><path d="M 8.28125 -27.921875 L 8.28125 -10.640625 C 8.28125 -8.742188 8.769531 -7.296875 9.75 -6.296875 C 10.738281 -5.296875 12.128906 -4.796875 13.921875 -4.796875 C 15.734375 -4.796875 17.128906 -5.296875 18.109375 -6.296875 C 19.097656 -7.296875 19.59375 -8.742188 19.59375 -10.640625 L 19.59375 -27.921875 L 25.234375 -27.921875 L 25.234375 -10.6875 C 25.234375 -8.3125 24.71875 -6.300781 23.6875 -4.65625 C 22.664062 -3.019531 21.296875 -1.785156 19.578125 -0.953125 C 17.859375 -0.128906 15.945312 0.28125 13.84375 0.28125 C 11.757812 0.28125 9.867188 -0.128906 8.171875 -0.953125 C 6.484375 -1.785156 5.144531 -3.019531 4.15625 -4.65625 C 3.175781 -6.300781 2.6875 -8.3125 2.6875 -10.6875 L 2.6875 -27.921875 Z M 8.28125 -27.921875 "/></g></g></g><g fill="#eefffd" fill-opacity="1"><g transform="translate(223.529629, 324.548299)"><g><path d="M 8.359375 -27.921875 L 8.359375 0 L 2.765625 0 L 2.765625 -27.921875 Z M 8.359375 -27.921875 "/></g></g></g><g fill="#d9d9d9" fill-opacity="1"><g transform="translate(172.394525, 355.649948)"><g><path d="M 3.640625 0.03125 C 3.035156 0.03125 2.460938 -0.078125 1.921875 -0.296875 C 1.390625 -0.515625 0.984375 -0.800781 0.703125 -1.15625 L 0.859375 -1.3125 C 1.128906 -0.988281 1.515625 -0.71875 2.015625 -0.5 C 2.523438 -0.289062 3.066406 -0.1875 3.640625 -0.1875 C 4.503906 -0.1875 5.160156 -0.359375 5.609375 -0.703125 C 6.054688 -1.054688 6.28125 -1.507812 6.28125 -2.0625 C 6.28125 -2.5 6.160156 -2.84375 5.921875 -3.09375 C 5.691406 -3.351562 5.40625 -3.546875 5.0625 -3.671875 C 4.726562 -3.796875 4.273438 -3.925781 3.703125 -4.0625 C 3.078125 -4.21875 2.582031 -4.363281 2.21875 -4.5 C 1.863281 -4.644531 1.5625 -4.863281 1.3125 -5.15625 C 1.0625 -5.445312 0.9375 -5.835938 0.9375 -6.328125 C 0.9375 -6.710938 1.035156 -7.0625 1.234375 -7.375 C 1.429688 -7.695312 1.742188 -7.953125 2.171875 -8.140625 C 2.597656 -8.335938 3.125 -8.4375 3.75 -8.4375 C 4.195312 -8.4375 4.632812 -8.363281 5.0625 -8.21875 C 5.5 -8.082031 5.875 -7.898438 6.1875 -7.671875 L 6.046875 -7.46875 C 5.722656 -7.71875 5.359375 -7.898438 4.953125 -8.015625 C 4.546875 -8.140625 4.144531 -8.203125 3.75 -8.203125 C 2.914062 -8.203125 2.273438 -8.023438 1.828125 -7.671875 C 1.390625 -7.316406 1.171875 -6.863281 1.171875 -6.3125 C 1.171875 -5.875 1.285156 -5.523438 1.515625 -5.265625 C 1.753906 -5.015625 2.046875 -4.820312 2.390625 -4.6875 C 2.734375 -4.5625 3.195312 -4.425781 3.78125 -4.28125 C 4.382812 -4.132812 4.863281 -3.988281 5.21875 -3.84375 C 5.582031 -3.707031 5.890625 -3.492188 6.140625 -3.203125 C 6.390625 -2.921875 6.515625 -2.539062 6.515625 -2.0625 C 6.515625 -1.675781 6.410156 -1.320312 6.203125 -1 C 5.992188 -0.6875 5.675781 -0.4375 5.25 -0.25 C 4.820312 -0.0625 4.285156 0.03125 3.640625 0.03125 Z M 3.640625 0.03125 "/></g></g></g><g fill="#d9d9d9" fill-opacity="1"><g transform="translate(179.846539, 355.649948)"><g><path d="M 1.09375 0.03125 C 1.007812 0.03125 0.9375 0 0.875 -0.0625 C 0.8125 -0.125 0.78125 -0.195312 0.78125 -0.28125 C 0.78125 -0.363281 0.8125 -0.4375 0.875 -0.5 C 0.9375 -0.5625 1.007812 -0.59375 1.09375 -0.59375 C 1.175781 -0.59375 1.25 -0.5625 1.3125 -0.5 C 1.375 -0.4375 1.40625 -0.363281 1.40625 -0.28125 C 1.40625 -0.195312 1.375 -0.125 1.3125 -0.0625 C 1.25 0 1.175781 0.03125 1.09375 0.03125 Z M 1.09375 0.03125 "/></g></g></g><g fill="#d9d9d9" fill-opacity="1"><g transform="translate(181.790536, 355.649948)"><g><path d="M 5.015625 0.03125 C 4.203125 0.03125 3.46875 -0.148438 2.8125 -0.515625 C 2.164062 -0.878906 1.648438 -1.382812 1.265625 -2.03125 C 0.890625 -2.675781 0.703125 -3.398438 0.703125 -4.203125 C 0.703125 -5.003906 0.890625 -5.722656 1.265625 -6.359375 C 1.648438 -7.003906 2.164062 -7.507812 2.8125 -7.875 C 3.46875 -8.25 4.203125 -8.4375 5.015625 -8.4375 C 5.585938 -8.4375 6.117188 -8.34375 6.609375 -8.15625 C 7.097656 -7.976562 7.519531 -7.71875 7.875 -7.375 L 7.734375 -7.203125 C 7.023438 -7.867188 6.117188 -8.203125 5.015625 -8.203125 C 4.253906 -8.203125 3.5625 -8.023438 2.9375 -7.671875 C 2.320312 -7.328125 1.835938 -6.847656 1.484375 -6.234375 C 1.128906 -5.617188 0.953125 -4.941406 0.953125 -4.203125 C 0.953125 -3.453125 1.128906 -2.769531 1.484375 -2.15625 C 1.835938 -1.550781 2.320312 -1.070312 2.9375 -0.71875 C 3.5625 -0.363281 4.253906 -0.1875 5.015625 -0.1875 C 6.109375 -0.1875 7.015625 -0.53125 7.734375 -1.21875 L 7.875 -1.046875 C 7.519531 -0.691406 7.09375 -0.421875 6.59375 -0.234375 C 6.101562 -0.0546875 5.578125 0.03125 5.015625 0.03125 Z M 5.015625 0.03125 "/></g></g></g><g fill="#d9d9d9" fill-opacity="1"><g transform="translate(190.502556, 355.649948)"><g><path d="M 1.09375 0.03125 C 1.007812 0.03125 0.9375 0 0.875 -0.0625 C 0.8125 -0.125 0.78125 -0.195312 0.78125 -0.28125 C 0.78125 -0.363281 0.8125 -0.4375 0.875 -0.5 C 0.9375 -0.5625 1.007812 -0.59375 1.09375 -0.59375 C 1.175781 -0.59375 1.25 -0.5625 1.3125 -0.5 C 1.375 -0.4375 1.40625 -0.363281 1.40625 -0.28125 C 1.40625 -0.195312 1.375 -0.125 1.3125 -0.0625 C 1.25 0 1.175781 0.03125 1.09375 0.03125 Z M 1.09375 0.03125 "/></g></g></g><g fill="#d9d9d9" fill-opacity="1"><g transform="translate(192.686558, 355.649948)"><g><path d="M 1.59375 -8.40625 L 4.78125 -8.40625 C 5.644531 -8.40625 6.410156 -8.222656 7.078125 -7.859375 C 7.753906 -7.492188 8.273438 -6.992188 8.640625 -6.359375 C 9.015625 -5.722656 9.203125 -5.003906 9.203125 -4.203125 C 9.203125 -3.398438 9.015625 -2.675781 8.640625 -2.03125 C 8.273438 -1.394531 7.753906 -0.894531 7.078125 -0.53125 C 6.410156 -0.175781 5.644531 0 4.78125 0 L 1.59375 0 Z M 4.75 -0.234375 C 5.59375 -0.234375 6.332031 -0.398438 6.96875 -0.734375 C 7.601562 -1.078125 8.09375 -1.550781 8.4375 -2.15625 C 8.789062 -2.757812 8.96875 -3.441406 8.96875 -4.203125 C 8.96875 -4.960938 8.789062 -5.644531 8.4375 -6.25 C 8.09375 -6.851562 7.601562 -7.320312 6.96875 -7.65625 C 6.332031 -8 5.59375 -8.171875 4.75 -8.171875 L 1.84375 -8.171875 L 1.84375 -0.234375 Z M 4.75 -0.234375 "/></g></g></g></svg>