<svg xmlns="http://www.w3.org/2000/svg" xmlns:xlink="http://www.w3.org/1999/xlink" width="500" zoomAndPan="magnify" viewBox="0 0 375 374.999991" height="500" preserveAspectRatio="xMidYMid meet" version="1.0"><defs><filter x="0%" y="0%" width="100%" height="100%" id="9173e50470"><feColorMatrix values="0 0 0 0 1 0 0 0 0 1 0 0 0 0 1 0 0 0 1 0" color-interpolation-filters="sRGB"/></filter><mask id="353daf9be0"><g filter="url(#9173e50470)"><rect x="-37.5" width="450" fill="#000000" y="-37.499999" height="449.999989" fill-opacity="0.95"/></g></mask><clipPath id="9a304a476a"><path d="M 0 0 L 375 0 L 375 375 L 0 375 Z M 0 0 " clip-rule="nonzero"/></clipPath><clipPath id="f6c56699e3"><path d="M 75 0 L 300 0 C 341.421875 0 375 33.578125 375 75 L 375 300 C 375 341.421875 341.421875 375 300 375 L 75 375 C 33.578125 375 0 341.421875 0 300 L 0 75 C 0 33.578125 33.578125 0 75 0 Z M 75 0 " clip-rule="nonzero"/></clipPath><clipPath id="776a95ddf0"><path d="M 0 0 L 375 0 L 375 375 L 0 375 Z M 0 0 " clip-rule="nonzero"/></clipPath><clipPath id="ca39e4f106"><path d="M 75 0 L 300 0 C 341.421875 0 375 33.578125 375 75 L 375 300 C 375 341.421875 341.421875 375 300 375 L 75 375 C 33.578125 375 0 341.421875 0 300 L 0 75 C 0 33.578125 33.578125 0 75 0 Z M 75 0 " clip-rule="nonzero"/></clipPath><clipPath id="2358432bd8"><rect x="0" width="375" y="0" height="375"/></clipPath><clipPath id="749d9f8417"><rect x="0" width="375" y="0" height="375"/></clipPath><mask id="6337ed1245"><g filter="url(#9173e50470)"><rect x="-37.5" width="450" fill="#000000" y="-37.499999" height="449.999989" fill-opacity="0.95"/></g></mask><clipPath id="0f7b7c9d09"><path d="M 0.679688 0.441406 L 280.96875 0.441406 L 280.96875 278.558594 L 0.679688 278.558594 Z M 0.679688 0.441406 " clip-rule="nonzero"/></clipPath><clipPath id="1265429e33"><path d="M 75.679688 0.441406 L 205.320312 0.441406 C 246.742188 0.441406 280.320312 34.019531 280.320312 75.441406 L 280.320312 203.558594 C 280.320312 244.980469 246.742188 278.558594 205.320312 278.558594 L 75.679688 278.558594 C 34.257812 278.558594 0.679688 244.980469 0.679688 203.558594 L 0.679688 75.441406 C 0.679688 34.019531 34.257812 0.441406 75.679688 0.441406 Z M 75.679688 0.441406 " clip-rule="nonzero"/></clipPath><clipPath id="38879b4695"><path d="M 0.679688 0.441406 L 280 0.441406 L 280 278.558594 L 0.679688 278.558594 Z M 0.679688 0.441406 " clip-rule="nonzero"/></clipPath><clipPath id="3ac577db7f"><path d="M 75.679688 0.441406 L 205.320312 0.441406 C 246.742188 0.441406 280.320312 34.019531 280.320312 75.441406 L 280.320312 203.558594 C 280.320312 244.980469 246.742188 278.558594 205.320312 278.558594 L 75.679688 278.558594 C 34.257812 278.558594 0.679688 244.980469 0.679688 203.558594 L 0.679688 75.441406 C 0.679688 34.019531 34.257812 0.441406 75.679688 0.441406 Z M 75.679688 0.441406 " clip-rule="nonzero"/></clipPath><clipPath id="37657a8f7a"><rect x="0" width="281" y="0" height="279"/></clipPath><clipPath id="d69c41228d"><rect x="0" width="282" y="0" height="279"/></clipPath><mask id="37516d31e3"><g filter="url(#9173e50470)"><rect x="-37.5" width="450" fill="#000000" y="-37.499999" height="449.999989" fill-opacity="0.95"/></g></mask><clipPath id="16d27c442b"><path d="M 0.328125 0.855469 L 233 0.855469 L 233 230.144531 L 0.328125 230.144531 Z M 0.328125 0.855469 " clip-rule="nonzero"/></clipPath><clipPath id="4c07478c04"><path d="M 55.828125 0.855469 L 177.171875 0.855469 C 191.890625 0.855469 206.007812 6.703125 216.414062 17.109375 C 226.824219 27.519531 232.671875 41.636719 232.671875 56.355469 L 232.671875 174.644531 C 232.671875 189.363281 226.824219 203.480469 216.414062 213.890625 C 206.007812 224.296875 191.890625 230.144531 177.171875 230.144531 L 55.828125 230.144531 C 41.109375 230.144531 26.992188 224.296875 16.585938 213.890625 C 6.175781 203.480469 0.328125 189.363281 0.328125 174.644531 L 0.328125 56.355469 C 0.328125 41.636719 6.175781 27.519531 16.585938 17.109375 C 26.992188 6.703125 41.109375 0.855469 55.828125 0.855469 Z M 55.828125 0.855469 " clip-rule="nonzero"/></clipPath><clipPath id="62ef786c21"><path d="M 0.328125 0.855469 L 232.839844 0.855469 L 232.839844 230.144531 L 0.328125 230.144531 Z M 0.328125 0.855469 " clip-rule="nonzero"/></clipPath><clipPath id="e94936f706"><path d="M 55.828125 0.855469 L 177.171875 0.855469 C 191.890625 0.855469 206.007812 6.703125 216.414062 17.109375 C 226.824219 27.519531 232.671875 41.636719 232.671875 56.355469 L 232.671875 174.644531 C 232.671875 189.363281 226.824219 203.480469 216.414062 213.890625 C 206.007812 224.296875 191.890625 230.144531 177.171875 230.144531 L 55.828125 230.144531 C 41.109375 230.144531 26.992188 224.296875 16.585938 213.890625 C 6.175781 203.480469 0.328125 189.363281 0.328125 174.644531 L 0.328125 56.355469 C 0.328125 41.636719 6.175781 27.519531 16.585938 17.109375 C 26.992188 6.703125 41.109375 0.855469 55.828125 0.855469 Z M 55.828125 0.855469 " clip-rule="nonzero"/></clipPath><clipPath id="48891a0a17"><rect x="0" width="233" y="0" height="231"/></clipPath><clipPath id="85c31b30fd"><rect x="0" width="234" y="0" height="231"/></clipPath><mask id="1acadeb63c"><g filter="url(#9173e50470)"><rect x="-37.5" width="450" fill="#000000" y="-37.499999" height="449.999989" fill-opacity="0.95"/></g></mask><clipPath id="d59ac0e72e"><path d="M 100.992188 100.992188 L 244.007812 100.992188 L 244.007812 244.007812 L 100.992188 244.007812 Z M 100.992188 100.992188 " clip-rule="nonzero"/></clipPath><clipPath id="983d662c1e"><path d="M 172.5 100.992188 C 133.007812 100.992188 100.992188 133.007812 100.992188 172.5 C 100.992188 211.992188 133.007812 244.007812 172.5 244.007812 C 211.992188 244.007812 244.007812 211.992188 244.007812 172.5 C 244.007812 133.007812 211.992188 100.992188 172.5 100.992188 Z M 172.5 100.992188 " clip-rule="nonzero"/></clipPath><clipPath id="fc5bb88bae"><path d="M 0.992188 0.992188 L 144.007812 0.992188 L 144.007812 144.007812 L 0.992188 144.007812 Z M 0.992188 0.992188 " clip-rule="nonzero"/></clipPath><clipPath id="bde0aedac3"><path d="M 72.5 0.992188 C 33.007812 0.992188 0.992188 33.007812 0.992188 72.5 C 0.992188 111.992188 33.007812 144.007812 72.5 144.007812 C 111.992188 144.007812 144.007812 111.992188 144.007812 72.5 C 144.007812 33.007812 111.992188 0.992188 72.5 0.992188 Z M 72.5 0.992188 " clip-rule="nonzero"/></clipPath><clipPath id="aea3cc7f9a"><rect x="0" width="145" y="0" height="145"/></clipPath><clipPath id="0817891996"><path d="M 100.992188 100.992188 L 243.996094 100.992188 L 243.996094 243.996094 L 100.992188 243.996094 Z M 100.992188 100.992188 " clip-rule="nonzero"/></clipPath><clipPath id="22f2301458"><path d="M 172.496094 100.992188 C 133.003906 100.992188 100.992188 133.003906 100.992188 172.496094 C 100.992188 211.984375 133.003906 243.996094 172.496094 243.996094 C 211.984375 243.996094 243.996094 211.984375 243.996094 172.496094 C 243.996094 133.003906 211.984375 100.992188 172.496094 100.992188 Z M 172.496094 100.992188 " clip-rule="nonzero"/></clipPath><clipPath id="46c29551d3"><rect x="0" width="345" y="0" height="345"/></clipPath><clipPath id="7dd6f31a77"><path d="M 245.652344 96.359375 L 279.582031 96.359375 L 279.582031 130.285156 L 245.652344 130.285156 Z M 245.652344 96.359375 " clip-rule="nonzero"/></clipPath><clipPath id="03e8277f50"><path d="M 262.617188 96.359375 C 253.25 96.359375 245.652344 103.953125 245.652344 113.324219 C 245.652344 122.691406 253.25 130.285156 262.617188 130.285156 C 271.988281 130.285156 279.582031 122.691406 279.582031 113.324219 C 279.582031 103.953125 271.988281 96.359375 262.617188 96.359375 Z M 262.617188 96.359375 " clip-rule="nonzero"/></clipPath><clipPath id="59ff3f4826"><path d="M 0.652344 0.359375 L 34.582031 0.359375 L 34.582031 34.285156 L 0.652344 34.285156 Z M 0.652344 0.359375 " clip-rule="nonzero"/></clipPath><clipPath id="8641433284"><path d="M 17.617188 0.359375 C 8.25 0.359375 0.652344 7.953125 0.652344 17.324219 C 0.652344 26.691406 8.25 34.285156 17.617188 34.285156 C 26.988281 34.285156 34.582031 26.691406 34.582031 17.324219 C 34.582031 7.953125 26.988281 0.359375 17.617188 0.359375 Z M 17.617188 0.359375 " clip-rule="nonzero"/></clipPath><clipPath id="5b4dee45e2"><rect x="0" width="35" y="0" height="35"/></clipPath></defs><g mask="url(#353daf9be0)"><g transform="matrix(1, 0, 0, 1, 0, 0)"><g clip-path="url(#749d9f8417)"><g clip-path="url(#9a304a476a)"><g clip-path="url(#f6c56699e3)"><g transform="matrix(1, 0, 0, 1, 0, 0)"><g clip-path="url(#2358432bd8)"><g clip-path="url(#776a95ddf0)"><g clip-path="url(#ca39e4f106)"><rect x="-136.5" width="648" fill="#011512" y="-136.499997" height="647.999984" fill-opacity="1"/></g></g></g></g></g></g></g></g></g><g mask="url(#6337ed1245)"><g transform="matrix(1, 0, 0, 1, 47, 48)"><g clip-path="url(#d69c41228d)"><g clip-path="url(#0f7b7c9d09)"><g clip-path="url(#1265429e33)"><g><g clip-path="url(#37657a8f7a)"><g clip-path="url(#38879b4695)"><g clip-path="url(#3ac577db7f)"><path fill="#d3f2ee" d="M 0.679688 0.441406 L 279.882812 0.441406 L 279.882812 278.558594 L 0.679688 278.558594 Z M 0.679688 0.441406 " fill-opacity="1" fill-rule="nonzero"/></g></g></g></g></g></g></g></g></g><g mask="url(#37516d31e3)"><g transform="matrix(1, 0, 0, 1, 71, 72)"><g clip-path="url(#85c31b30fd)"><g clip-path="url(#16d27c442b)"><g clip-path="url(#4c07478c04)"><g><g clip-path="url(#48891a0a17)"><g clip-path="url(#62ef786c21)"><g clip-path="url(#e94936f706)"><path fill="#011512" d="M 0.328125 0.855469 L 232.308594 0.855469 L 232.308594 230.144531 L 0.328125 230.144531 Z M 0.328125 0.855469 " fill-opacity="1" fill-rule="nonzero"/></g></g></g></g></g></g></g></g></g><g mask="url(#1acadeb63c)"><g transform="matrix(1, 0, 0, 1, 15, 15)"><g clip-path="url(#46c29551d3)"><g clip-path="url(#d59ac0e72e)"><g clip-path="url(#983d662c1e)"><g transform="matrix(1, 0, 0, 1, 100, 100)"><g clip-path="url(#aea3cc7f9a)"><g clip-path="url(#fc5bb88bae)"><g clip-path="url(#bde0aedac3)"><path fill="#011512" d="M 0.992188 0.992188 L 144.007812 0.992188 L 144.007812 144.007812 L 0.992188 144.007812 Z M 0.992188 0.992188 " fill-opacity="1" fill-rule="nonzero"/></g></g></g></g></g></g><g clip-path="url(#0817891996)"><g clip-path="url(#22f2301458)"><path stroke-linecap="butt" transform="matrix(0.75, 0, 0, 0.75, 100.99253, 100.992525)" fill="none" stroke-linejoin="miter" d="M 95.338098 -0.000450244 C 42.681841 -0.000450244 -0.000456244 42.681847 -0.000456244 95.338104 C -0.000456244 147.989152 42.681841 190.671449 95.338098 190.671449 C 147.989146 190.671449 190.671443 147.989152 190.671443 95.338104 C 190.671443 42.681847 147.989146 -0.000450244 95.338098 -0.000450244 Z M 95.338098 -0.000450244 " stroke="#d3f2ee" stroke-width="66" stroke-opacity="1" stroke-miterlimit="4"/></g></g></g></g></g><g clip-path="url(#7dd6f31a77)"><g clip-path="url(#03e8277f50)"><g transform="matrix(1, 0, 0, 1, 245, 96)"><g clip-path="url(#5b4dee45e2)"><g clip-path="url(#59ff3f4826)"><g clip-path="url(#8641433284)"><path fill="#d3f2ee" d="M 0.652344 0.359375 L 34.582031 0.359375 L 34.582031 34.285156 L 0.652344 34.285156 Z M 0.652344 0.359375 " fill-opacity="1" fill-rule="nonzero"/></g></g></g></g></g></g></svg>