<svg xmlns="http://www.w3.org/2000/svg" xmlns:xlink="http://www.w3.org/1999/xlink" width="50" zoomAndPan="magnify" viewBox="0 0 37.5 37.499999" height="50" preserveAspectRatio="xMidYMid meet" version="1.0"><defs><clipPath id="484bc062f2"><path d="M 0 0 L 37.007812 0 L 37.007812 37.007812 L 0 37.007812 Z M 0 0 " clip-rule="nonzero"/></clipPath><clipPath id="1a5dada7cb"><path d="M 6.660156 0 L 30.34375 0 C 32.113281 0 33.804688 0.703125 35.054688 1.949219 C 36.304688 3.199219 37.007812 4.894531 37.007812 6.660156 L 37.007812 30.34375 C 37.007812 32.113281 36.304688 33.804688 35.054688 35.054688 C 33.804688 36.304688 32.113281 37.007812 30.34375 37.007812 L 6.660156 37.007812 C 2.980469 37.007812 0 34.023438 0 30.34375 L 0 6.660156 C 0 2.980469 2.980469 0 6.660156 0 Z M 6.660156 0 " clip-rule="nonzero"/></clipPath><clipPath id="0d8e2eeeca"><path d="M 0 0 L 37.007812 0 L 37.007812 37.007812 L 0 37.007812 Z M 0 0 " clip-rule="nonzero"/></clipPath><clipPath id="9ca0c0f345"><path d="M 6.660156 0 L 30.34375 0 C 32.113281 0 33.804688 0.703125 35.054688 1.949219 C 36.304688 3.199219 37.007812 4.894531 37.007812 6.660156 L 37.007812 30.34375 C 37.007812 32.113281 36.304688 33.804688 35.054688 35.054688 C 33.804688 36.304688 32.113281 37.007812 30.34375 37.007812 L 6.660156 37.007812 C 2.980469 37.007812 0 34.023438 0 30.34375 L 0 6.660156 C 0 2.980469 2.980469 0 6.660156 0 Z M 6.660156 0 " clip-rule="nonzero"/></clipPath><clipPath id="6b30f15616"><rect x="0" width="38" y="0" height="38"/></clipPath><clipPath id="c3c83562c4"><path d="M 2.367188 2.21875 L 34.636719 2.21875 L 34.636719 34.867188 L 2.367188 34.867188 Z M 2.367188 2.21875 " clip-rule="nonzero"/></clipPath><clipPath id="d32e2d8416"><path d="M 10.511719 2.21875 L 26.496094 2.21875 C 28.65625 2.21875 30.726562 3.078125 32.253906 4.605469 C 33.78125 6.132812 34.636719 8.203125 34.636719 10.363281 L 34.636719 26.644531 C 34.636719 28.804688 33.78125 30.875 32.253906 32.402344 C 30.726562 33.929688 28.65625 34.785156 26.496094 34.785156 L 10.511719 34.785156 C 8.351562 34.785156 6.28125 33.929688 4.753906 32.402344 C 3.226562 30.875 2.367188 28.804688 2.367188 26.644531 L 2.367188 10.363281 C 2.367188 8.203125 3.226562 6.132812 4.753906 4.605469 C 6.28125 3.078125 8.351562 2.21875 10.511719 2.21875 Z M 10.511719 2.21875 " clip-rule="nonzero"/></clipPath><clipPath id="1a6e44b6c3"><path d="M 0.367188 0.21875 L 32.636719 0.21875 L 32.636719 32.816406 L 0.367188 32.816406 Z M 0.367188 0.21875 " clip-rule="nonzero"/></clipPath><clipPath id="02de7ea806"><path d="M 8.511719 0.21875 L 24.496094 0.21875 C 26.65625 0.21875 28.726562 1.078125 30.253906 2.605469 C 31.78125 4.132812 32.636719 6.203125 32.636719 8.363281 L 32.636719 24.644531 C 32.636719 26.804688 31.78125 28.875 30.253906 30.402344 C 28.726562 31.929688 26.65625 32.785156 24.496094 32.785156 L 8.511719 32.785156 C 6.351562 32.785156 4.28125 31.929688 2.753906 30.402344 C 1.226562 28.875 0.367188 26.804688 0.367188 24.644531 L 0.367188 8.363281 C 0.367188 6.203125 1.226562 4.132812 2.753906 2.605469 C 4.28125 1.078125 6.351562 0.21875 8.511719 0.21875 Z M 8.511719 0.21875 " clip-rule="nonzero"/></clipPath><clipPath id="ce1667f257"><rect x="0" width="33" y="0" height="33"/></clipPath><clipPath id="03a94cb89b"><path d="M 5.179688 5.253906 L 31.882812 5.253906 L 31.882812 31.75 L 5.179688 31.75 Z M 5.179688 5.253906 " clip-rule="nonzero"/></clipPath><clipPath id="21582c971e"><path d="M 13.324219 5.253906 L 23.683594 5.253906 C 25.84375 5.253906 27.914062 6.113281 29.441406 7.640625 C 30.96875 9.167969 31.824219 11.238281 31.824219 13.394531 L 31.824219 23.609375 C 31.824219 25.769531 30.96875 27.839844 29.441406 29.367188 C 27.914062 30.894531 25.84375 31.75 23.683594 31.75 L 13.324219 31.75 C 11.164062 31.75 9.09375 30.894531 7.566406 29.367188 C 6.039062 27.839844 5.179688 25.769531 5.179688 23.609375 L 5.179688 13.394531 C 5.179688 11.238281 6.039062 9.167969 7.566406 7.640625 C 9.09375 6.113281 11.164062 5.253906 13.324219 5.253906 Z M 13.324219 5.253906 " clip-rule="nonzero"/></clipPath><clipPath id="0731d07120"><path d="M 0.179688 0.253906 L 26.882812 0.253906 L 26.882812 26.75 L 0.179688 26.75 Z M 0.179688 0.253906 " clip-rule="nonzero"/></clipPath><clipPath id="0480b51ba1"><path d="M 8.324219 0.253906 L 18.683594 0.253906 C 20.84375 0.253906 22.914062 1.113281 24.441406 2.640625 C 25.96875 4.167969 26.824219 6.238281 26.824219 8.394531 L 26.824219 18.609375 C 26.824219 20.769531 25.96875 22.839844 24.441406 24.367188 C 22.914062 25.894531 20.84375 26.75 18.683594 26.75 L 8.324219 26.75 C 6.164062 26.75 4.09375 25.894531 2.566406 24.367188 C 1.039062 22.839844 0.179688 20.769531 0.179688 18.609375 L 0.179688 8.394531 C 0.179688 6.238281 1.039062 4.167969 2.566406 2.640625 C 4.09375 1.113281 6.164062 0.253906 8.324219 0.253906 Z M 8.324219 0.253906 " clip-rule="nonzero"/></clipPath><clipPath id="3ba2cd7f26"><rect x="0" width="27" y="0" height="27"/></clipPath><clipPath id="13cf92d0e3"><path d="M 9.511719 9.511719 L 27.496094 9.511719 L 27.496094 27.496094 L 9.511719 27.496094 Z M 9.511719 9.511719 " clip-rule="nonzero"/></clipPath><clipPath id="618db47fd6"><path d="M 18.503906 9.511719 C 13.535156 9.511719 9.511719 13.535156 9.511719 18.503906 C 9.511719 23.46875 13.535156 27.496094 18.503906 27.496094 C 23.46875 27.496094 27.496094 23.46875 27.496094 18.503906 C 27.496094 13.535156 23.46875 9.511719 18.503906 9.511719 Z M 18.503906 9.511719 " clip-rule="nonzero"/></clipPath><clipPath id="90b4914706"><path d="M 0.511719 0.511719 L 18.496094 0.511719 L 18.496094 18.496094 L 0.511719 18.496094 Z M 0.511719 0.511719 " clip-rule="nonzero"/></clipPath><clipPath id="b36aec2779"><path d="M 9.503906 0.511719 C 4.535156 0.511719 0.511719 4.535156 0.511719 9.503906 C 0.511719 14.46875 4.535156 18.496094 9.503906 18.496094 C 14.46875 18.496094 18.496094 14.46875 18.496094 9.503906 C 18.496094 4.535156 14.46875 0.511719 9.503906 0.511719 Z M 9.503906 0.511719 " clip-rule="nonzero"/></clipPath><clipPath id="c09ee020e0"><rect x="0" width="19" y="0" height="19"/></clipPath><clipPath id="f09e474e4f"><path d="M 12.785156 12.785156 L 24.222656 12.785156 L 24.222656 24.222656 L 12.785156 24.222656 Z M 12.785156 12.785156 " clip-rule="nonzero"/></clipPath><clipPath id="5ab793cdb5"><path d="M 18.503906 12.785156 C 15.34375 12.785156 12.785156 15.34375 12.785156 18.503906 C 12.785156 21.660156 15.34375 24.222656 18.503906 24.222656 C 21.660156 24.222656 24.222656 21.660156 24.222656 18.503906 C 24.222656 15.34375 21.660156 12.785156 18.503906 12.785156 Z M 18.503906 12.785156 " clip-rule="nonzero"/></clipPath><clipPath id="5a79adc260"><path d="M 0.785156 0.785156 L 12.222656 0.785156 L 12.222656 12.222656 L 0.785156 12.222656 Z M 0.785156 0.785156 " clip-rule="nonzero"/></clipPath><clipPath id="c89b7a624e"><path d="M 6.503906 0.785156 C 3.34375 0.785156 0.785156 3.34375 0.785156 6.503906 C 0.785156 9.660156 3.34375 12.222656 6.503906 12.222656 C 9.660156 12.222656 12.222656 9.660156 12.222656 6.503906 C 12.222656 3.34375 9.660156 0.785156 6.503906 0.785156 Z M 6.503906 0.785156 " clip-rule="nonzero"/></clipPath><clipPath id="c55ba39284"><rect x="0" width="13" y="0" height="13"/></clipPath><clipPath id="da6c8c2204"><path d="M 25.183594 8.160156 L 29.808594 8.160156 L 29.808594 12.785156 L 25.183594 12.785156 Z M 25.183594 8.160156 " clip-rule="nonzero"/></clipPath><clipPath id="dca09177bb"><path d="M 27.496094 8.160156 C 26.21875 8.160156 25.183594 9.195312 25.183594 10.472656 C 25.183594 11.75 26.21875 12.785156 27.496094 12.785156 C 28.773438 12.785156 29.808594 11.75 29.808594 10.472656 C 29.808594 9.195312 28.773438 8.160156 27.496094 8.160156 Z M 27.496094 8.160156 " clip-rule="nonzero"/></clipPath><clipPath id="9e155b5cde"><path d="M 0.183594 0.160156 L 4.808594 0.160156 L 4.808594 4.785156 L 0.183594 4.785156 Z M 0.183594 0.160156 " clip-rule="nonzero"/></clipPath><clipPath id="ca29e7c675"><path d="M 2.496094 0.160156 C 1.21875 0.160156 0.183594 1.195312 0.183594 2.472656 C 0.183594 3.75 1.21875 4.785156 2.496094 4.785156 C 3.773438 4.785156 4.808594 3.75 4.808594 2.472656 C 4.808594 1.195312 3.773438 0.160156 2.496094 0.160156 Z M 2.496094 0.160156 " clip-rule="nonzero"/></clipPath><clipPath id="04ba1c1275"><rect x="0" width="5" y="0" height="5"/></clipPath></defs><g clip-path="url(#484bc062f2)"><g clip-path="url(#1a5dada7cb)"><g transform="matrix(1, 0, 0, 1, 0, 0)"><g clip-path="url(#6b30f15616)"><g clip-path="url(#0d8e2eeeca)"><g clip-path="url(#9ca0c0f345)"><path fill="#1d293d" d="M 0 0 L 37.007812 0 L 37.007812 37.007812 L 0 37.007812 Z M 0 0 " fill-opacity="1" fill-rule="nonzero"/></g></g></g></g></g></g><g clip-path="url(#c3c83562c4)"><g clip-path="url(#d32e2d8416)"><g transform="matrix(1, 0, 0, 1, 2, 2)"><g clip-path="url(#ce1667f257)"><g clip-path="url(#1a6e44b6c3)"><g clip-path="url(#02de7ea806)"><path fill="#eff3fa" d="M 0.367188 0.21875 L 32.636719 0.21875 L 32.636719 32.742188 L 0.367188 32.742188 Z M 0.367188 0.21875 " fill-opacity="1" fill-rule="nonzero"/></g></g></g></g></g></g><g clip-path="url(#03a94cb89b)"><g clip-path="url(#21582c971e)"><g transform="matrix(1, 0, 0, 1, 5, 5)"><g clip-path="url(#3ba2cd7f26)"><g clip-path="url(#0731d07120)"><g clip-path="url(#0480b51ba1)"><path fill="#1d293d" d="M 0.179688 0.253906 L 26.78125 0.253906 L 26.78125 26.75 L 0.179688 26.75 Z M 0.179688 0.253906 " fill-opacity="1" fill-rule="nonzero"/></g></g></g></g></g></g><g clip-path="url(#13cf92d0e3)"><g clip-path="url(#618db47fd6)"><g transform="matrix(1, 0, 0, 1, 9, 9)"><g clip-path="url(#c09ee020e0)"><g clip-path="url(#90b4914706)"><g clip-path="url(#b36aec2779)"><path fill="#eff3fa" d="M 0.511719 0.511719 L 18.496094 0.511719 L 18.496094 18.496094 L 0.511719 18.496094 Z M 0.511719 0.511719 " fill-opacity="1" fill-rule="nonzero"/></g></g></g></g></g></g><g clip-path="url(#f09e474e4f)"><g clip-path="url(#5ab793cdb5)"><g transform="matrix(1, 0, 0, 1, 12, 12)"><g clip-path="url(#c55ba39284)"><g clip-path="url(#5a79adc260)"><g clip-path="url(#c89b7a624e)"><path fill="#1d293d" d="M 0.785156 0.785156 L 12.222656 0.785156 L 12.222656 12.222656 L 0.785156 12.222656 Z M 0.785156 0.785156 " fill-opacity="1" fill-rule="nonzero"/></g></g></g></g></g></g><g clip-path="url(#da6c8c2204)"><g clip-path="url(#dca09177bb)"><g transform="matrix(1, 0, 0, 1, 25, 8)"><g clip-path="url(#04ba1c1275)"><g clip-path="url(#9e155b5cde)"><g clip-path="url(#ca29e7c675)"><path fill="#eff3fa" d="M 0.183594 0.160156 L 4.808594 0.160156 L 4.808594 4.785156 L 0.183594 4.785156 Z M 0.183594 0.160156 " fill-opacity="1" fill-rule="nonzero"/></g></g></g></g></g></g></svg>